<?xml version="1.0" encoding="UTF-8" standalone="no"?>
<svg width="173.567mm" height="109.008mm"
 viewBox="0 0 492 309"
 xmlns="http://www.w3.org/2000/svg" xmlns:xlink="http://www.w3.org/1999/xlink" version="1.1">
<title>Qt SVG Document</title>
<desc>MATLAB, The MathWorks, Inc. Version 26.1.0.3312084 R2026a Update 4</desc>
<defs>
</defs>
<g fill="none" stroke="black" stroke-width="1" fill-rule="evenodd" stroke-linecap="square" stroke-linejoin="bevel" >

<g fill="#fcfcfb" fill-opacity="1" stroke="none" transform="matrix(0.5,0,0,0.5,-26.348,-4.5)"
font-family=".AppleSystemUIFont" font-size="13" font-weight="400" font-style="normal" 
>
<path vector-effect="none" fill-rule="evenodd" d="M51,8 L1036,8 L1036,627 L51,627 L51,8"/>
</g>

<g fill="#fcfcfb" fill-opacity="1" stroke="none" transform="matrix(5e-05,0,0,5e-05,-26.348,-4.5)"
font-family=".AppleSystemUIFont" font-size="13" font-weight="400" font-style="normal" 
>
<path vector-effect="none" fill-rule="evenodd" d="M1.48e+06,670000 L1.48e+06,5.61e+06 L1.032e+07,5.61e+06 L1.032e+07,670000 L1.48e+06,670000"/>
</g>

<g fill="#0b0b0b" fill-opacity="1" stroke="#0b0b0b" stroke-opacity="1" stroke-width="1" stroke-linecap="square" stroke-linejoin="bevel" transform="matrix(0.5,0,0,0.5,65.652,10.5)"
font-family="Helvetica" font-size="24" font-weight="400" font-style="normal" 
>
<text fill="#0b0b0b" fill-opacity="1" stroke="none" xml:space="preserve" x="0" y="0.46875" font-family="Helvetica" font-size="24" font-weight="400" font-style="normal" 
 >H_256_768_22  (DATAC15 / DATAC16): frame error rate, BPSK over AWGN</text>
</g>

<g fill="#52514e" fill-opacity="1" stroke="#52514e" stroke-opacity="1" stroke-width="1" stroke-linecap="square" stroke-linejoin="bevel" transform="matrix(0.5,0,0,0.5,130.652,25.125)"
font-family="Helvetica" font-size="22" font-weight="400" font-style="normal" 
>
<text fill="#52514e" fill-opacity="1" stroke="none" xml:space="preserve" x="0" y="-0.0625" font-family="Helvetica" font-size="22" font-weight="400" font-style="normal" 
 >deployed -&gt; new decoder: 1.54 dB at FER 1% recovered</text>
</g>

<g fill="none" stroke="#eb6834" stroke-opacity="1" stroke-width="3.2" stroke-linecap="butt" stroke-linejoin="round" transform="matrix(0.5,0,0,0.5,-26.348,-4.5)"
font-family="Helvetica" font-size="22" font-weight="400" font-style="normal" 
>
<polyline fill="none" vector-effect="none" points="148,83.4336 258.5,88.057 369,108.51 479.5,149.278 590,239.683 700.5,329.807 811,443.889 921.5,514.956 " />
</g>

<g fill="#eb6834" fill-opacity="1" stroke="none" transform="matrix(0.5,0,0,0.5,-26.348,-4.5)"
font-family="Helvetica" font-size="22" font-weight="400" font-style="normal" 
>
<circle cx="148" cy="83.4336" r="5.5"/>
</g>

<g fill="none" stroke="#fcfcfb" stroke-opacity="1" stroke-width="3.2" stroke-linecap="butt" stroke-linejoin="miter" stroke-miterlimit="5" transform="matrix(0.5,0,0,0.5,-26.348,-4.5)"
font-family="Helvetica" font-size="22" font-weight="400" font-style="normal" 
>
<path vector-effect="none" fill-rule="evenodd" d="M153.5,83.4336 C153.5,80.3961 151.038,77.9336 148,77.9336 C144.962,77.9336 142.5,80.3961 142.5,83.4336 C142.5,86.4712 144.962,88.9336 148,88.9336 C151.038,88.9336 153.5,86.4712 153.5,83.4336 "/>
</g>

<g fill="#eb6834" fill-opacity="1" stroke="none" transform="matrix(0.5,0,0,0.5,-26.348,-4.5)"
font-family="Helvetica" font-size="22" font-weight="400" font-style="normal" 
>
<circle cx="258.5" cy="88.057" r="5.5"/>
</g>

<g fill="none" stroke="#fcfcfb" stroke-opacity="1" stroke-width="3.2" stroke-linecap="butt" stroke-linejoin="miter" stroke-miterlimit="5" transform="matrix(0.5,0,0,0.5,-26.348,-4.5)"
font-family="Helvetica" font-size="22" font-weight="400" font-style="normal" 
>
<path vector-effect="none" fill-rule="evenodd" d="M264,88.057 C264,85.0194 261.538,82.557 258.5,82.557 C255.462,82.557 253,85.0194 253,88.057 C253,91.0946 255.462,93.557 258.5,93.557 C261.538,93.557 264,91.0946 264,88.057 "/>
</g>

<g fill="#eb6834" fill-opacity="1" stroke="none" transform="matrix(0.5,0,0,0.5,-26.348,-4.5)"
font-family="Helvetica" font-size="22" font-weight="400" font-style="normal" 
>
<circle cx="369" cy="108.51" r="5.5"/>
</g>

<g fill="none" stroke="#fcfcfb" stroke-opacity="1" stroke-width="3.2" stroke-linecap="butt" stroke-linejoin="miter" stroke-miterlimit="5" transform="matrix(0.5,0,0,0.5,-26.348,-4.5)"
font-family="Helvetica" font-size="22" font-weight="400" font-style="normal" 
>
<path vector-effect="none" fill-rule="evenodd" d="M374.5,108.51 C374.5,105.472 372.038,103.01 369,103.01 C365.962,103.01 363.5,105.472 363.5,108.51 C363.5,111.547 365.962,114.01 369,114.01 C372.038,114.01 374.5,111.547 374.5,108.51 "/>
</g>

<g fill="#eb6834" fill-opacity="1" stroke="none" transform="matrix(0.5,0,0,0.5,-26.348,-4.5)"
font-family="Helvetica" font-size="22" font-weight="400" font-style="normal" 
>
<circle cx="479.5" cy="149.278" r="5.5"/>
</g>

<g fill="none" stroke="#fcfcfb" stroke-opacity="1" stroke-width="3.2" stroke-linecap="butt" stroke-linejoin="miter" stroke-miterlimit="5" transform="matrix(0.5,0,0,0.5,-26.348,-4.5)"
font-family="Helvetica" font-size="22" font-weight="400" font-style="normal" 
>
<path vector-effect="none" fill-rule="evenodd" d="M485,149.278 C485,146.24 482.538,143.778 479.5,143.778 C476.462,143.778 474,146.24 474,149.278 C474,152.315 476.462,154.778 479.5,154.778 C482.538,154.778 485,152.315 485,149.278 "/>
</g>

<g fill="#eb6834" fill-opacity="1" stroke="none" transform="matrix(0.5,0,0,0.5,-26.348,-4.5)"
font-family="Helvetica" font-size="22" font-weight="400" font-style="normal" 
>
<circle cx="590" cy="239.683" r="5.5"/>
</g>

<g fill="none" stroke="#fcfcfb" stroke-opacity="1" stroke-width="3.2" stroke-linecap="butt" stroke-linejoin="miter" stroke-miterlimit="5" transform="matrix(0.5,0,0,0.5,-26.348,-4.5)"
font-family="Helvetica" font-size="22" font-weight="400" font-style="normal" 
>
<path vector-effect="none" fill-rule="evenodd" d="M595.5,239.683 C595.5,236.645 593.038,234.183 590,234.183 C586.962,234.183 584.5,236.645 584.5,239.683 C584.5,242.72 586.962,245.183 590,245.183 C593.038,245.183 595.5,242.72 595.5,239.683 "/>
</g>

<g fill="#eb6834" fill-opacity="1" stroke="none" transform="matrix(0.5,0,0,0.5,-26.348,-4.5)"
font-family="Helvetica" font-size="22" font-weight="400" font-style="normal" 
>
<circle cx="700.5" cy="329.807" r="5.5"/>
</g>

<g fill="none" stroke="#fcfcfb" stroke-opacity="1" stroke-width="3.2" stroke-linecap="butt" stroke-linejoin="miter" stroke-miterlimit="5" transform="matrix(0.5,0,0,0.5,-26.348,-4.5)"
font-family="Helvetica" font-size="22" font-weight="400" font-style="normal" 
>
<path vector-effect="none" fill-rule="evenodd" d="M706,329.807 C706,326.77 703.538,324.307 700.5,324.307 C697.462,324.307 695,326.77 695,329.807 C695,332.845 697.462,335.307 700.5,335.307 C703.538,335.307 706,332.845 706,329.807 "/>
</g>

<g fill="#eb6834" fill-opacity="1" stroke="none" transform="matrix(0.5,0,0,0.5,-26.348,-4.5)"
font-family="Helvetica" font-size="22" font-weight="400" font-style="normal" 
>
<circle cx="811" cy="443.889" r="5.5"/>
</g>

<g fill="none" stroke="#fcfcfb" stroke-opacity="1" stroke-width="3.2" stroke-linecap="butt" stroke-linejoin="miter" stroke-miterlimit="5" transform="matrix(0.5,0,0,0.5,-26.348,-4.5)"
font-family="Helvetica" font-size="22" font-weight="400" font-style="normal" 
>
<path vector-effect="none" fill-rule="evenodd" d="M816.5,443.889 C816.5,440.851 814.038,438.389 811,438.389 C807.962,438.389 805.5,440.851 805.5,443.889 C805.5,446.926 807.962,449.389 811,449.389 C814.038,449.389 816.5,446.926 816.5,443.889 "/>
</g>

<g fill="#eb6834" fill-opacity="1" stroke="none" transform="matrix(0.5,0,0,0.5,-26.348,-4.5)"
font-family="Helvetica" font-size="22" font-weight="400" font-style="normal" 
>
<circle cx="921.5" cy="514.956" r="5.5"/>
</g>

<g fill="none" stroke="#fcfcfb" stroke-opacity="1" stroke-width="3.2" stroke-linecap="butt" stroke-linejoin="miter" stroke-miterlimit="5" transform="matrix(0.5,0,0,0.5,-26.348,-4.5)"
font-family="Helvetica" font-size="22" font-weight="400" font-style="normal" 
>
<path vector-effect="none" fill-rule="evenodd" d="M927,514.956 C927,511.919 924.538,509.456 921.5,509.456 C918.462,509.456 916,511.919 916,514.956 C916,517.994 918.462,520.456 921.5,520.456 C924.538,520.456 927,517.994 927,514.956 "/>
</g>

<g fill="none" stroke="#eda100" stroke-opacity="1" stroke-width="3.2" stroke-linecap="butt" stroke-linejoin="round" transform="matrix(0.5,0,0,0.5,-26.348,-4.5)"
font-family="Helvetica" font-size="22" font-weight="400" font-style="normal" 
>
<polyline fill="none" vector-effect="none" points="148,83.4336 258.5,83.4336 369,86.0464 479.5,100.229 590,150.851 700.5,221.982 811,344.865 921.5,452.479 1004.16,561 " />
</g>

<g fill="#eda100" fill-opacity="1" stroke="none" transform="matrix(0.5,0,0,0.5,-26.348,-4.5)"
font-family="Helvetica" font-size="22" font-weight="400" font-style="normal" 
>
<circle cx="148" cy="83.4336" r="5.5"/>
</g>

<g fill="none" stroke="#fcfcfb" stroke-opacity="1" stroke-width="3.2" stroke-linecap="butt" stroke-linejoin="miter" stroke-miterlimit="5" transform="matrix(0.5,0,0,0.5,-26.348,-4.5)"
font-family="Helvetica" font-size="22" font-weight="400" font-style="normal" 
>
<path vector-effect="none" fill-rule="evenodd" d="M153.5,83.4336 C153.5,80.3961 151.038,77.9336 148,77.9336 C144.962,77.9336 142.5,80.3961 142.5,83.4336 C142.5,86.4712 144.962,88.9336 148,88.9336 C151.038,88.9336 153.5,86.4712 153.5,83.4336 "/>
</g>

<g fill="#eda100" fill-opacity="1" stroke="none" transform="matrix(0.5,0,0,0.5,-26.348,-4.5)"
font-family="Helvetica" font-size="22" font-weight="400" font-style="normal" 
>
<circle cx="258.5" cy="83.4336" r="5.5"/>
</g>

<g fill="none" stroke="#fcfcfb" stroke-opacity="1" stroke-width="3.2" stroke-linecap="butt" stroke-linejoin="miter" stroke-miterlimit="5" transform="matrix(0.5,0,0,0.5,-26.348,-4.5)"
font-family="Helvetica" font-size="22" font-weight="400" font-style="normal" 
>
<path vector-effect="none" fill-rule="evenodd" d="M264,83.4336 C264,80.3961 261.538,77.9336 258.5,77.9336 C255.462,77.9336 253,80.3961 253,83.4336 C253,86.4712 255.462,88.9336 258.5,88.9336 C261.538,88.9336 264,86.4712 264,83.4336 "/>
</g>

<g fill="#eda100" fill-opacity="1" stroke="none" transform="matrix(0.5,0,0,0.5,-26.348,-4.5)"
font-family="Helvetica" font-size="22" font-weight="400" font-style="normal" 
>
<circle cx="369" cy="86.0464" r="5.5"/>
</g>

<g fill="none" stroke="#fcfcfb" stroke-opacity="1" stroke-width="3.2" stroke-linecap="butt" stroke-linejoin="miter" stroke-miterlimit="5" transform="matrix(0.5,0,0,0.5,-26.348,-4.5)"
font-family="Helvetica" font-size="22" font-weight="400" font-style="normal" 
>
<path vector-effect="none" fill-rule="evenodd" d="M374.5,86.0464 C374.5,83.0089 372.038,80.5464 369,80.5464 C365.962,80.5464 363.5,83.0089 363.5,86.0464 C363.5,89.084 365.962,91.5464 369,91.5464 C372.038,91.5464 374.5,89.084 374.5,86.0464 "/>
</g>

<g fill="#eda100" fill-opacity="1" stroke="none" transform="matrix(0.5,0,0,0.5,-26.348,-4.5)"
font-family="Helvetica" font-size="22" font-weight="400" font-style="normal" 
>
<circle cx="479.5" cy="100.229" r="5.5"/>
</g>

<g fill="none" stroke="#fcfcfb" stroke-opacity="1" stroke-width="3.2" stroke-linecap="butt" stroke-linejoin="miter" stroke-miterlimit="5" transform="matrix(0.5,0,0,0.5,-26.348,-4.5)"
font-family="Helvetica" font-size="22" font-weight="400" font-style="normal" 
>
<path vector-effect="none" fill-rule="evenodd" d="M485,100.229 C485,97.191 482.538,94.7285 479.5,94.7285 C476.462,94.7285 474,97.191 474,100.229 C474,103.266 476.462,105.729 479.5,105.729 C482.538,105.729 485,103.266 485,100.229 "/>
</g>

<g fill="#eda100" fill-opacity="1" stroke="none" transform="matrix(0.5,0,0,0.5,-26.348,-4.5)"
font-family="Helvetica" font-size="22" font-weight="400" font-style="normal" 
>
<circle cx="590" cy="150.851" r="5.5"/>
</g>

<g fill="none" stroke="#fcfcfb" stroke-opacity="1" stroke-width="3.2" stroke-linecap="butt" stroke-linejoin="miter" stroke-miterlimit="5" transform="matrix(0.5,0,0,0.5,-26.348,-4.5)"
font-family="Helvetica" font-size="22" font-weight="400" font-style="normal" 
>
<path vector-effect="none" fill-rule="evenodd" d="M595.5,150.851 C595.5,147.813 593.038,145.351 590,145.351 C586.962,145.351 584.5,147.813 584.5,150.851 C584.5,153.889 586.962,156.351 590,156.351 C593.038,156.351 595.5,153.889 595.5,150.851 "/>
</g>

<g fill="#eda100" fill-opacity="1" stroke="none" transform="matrix(0.5,0,0,0.5,-26.348,-4.5)"
font-family="Helvetica" font-size="22" font-weight="400" font-style="normal" 
>
<circle cx="700.5" cy="221.982" r="5.5"/>
</g>

<g fill="none" stroke="#fcfcfb" stroke-opacity="1" stroke-width="3.2" stroke-linecap="butt" stroke-linejoin="miter" stroke-miterlimit="5" transform="matrix(0.5,0,0,0.5,-26.348,-4.5)"
font-family="Helvetica" font-size="22" font-weight="400" font-style="normal" 
>
<path vector-effect="none" fill-rule="evenodd" d="M706,221.982 C706,218.945 703.538,216.482 700.5,216.482 C697.462,216.482 695,218.945 695,221.982 C695,225.02 697.462,227.482 700.5,227.482 C703.538,227.482 706,225.02 706,221.982 "/>
</g>

<g fill="#eda100" fill-opacity="1" stroke="none" transform="matrix(0.5,0,0,0.5,-26.348,-4.5)"
font-family="Helvetica" font-size="22" font-weight="400" font-style="normal" 
>
<circle cx="811" cy="344.865" r="5.5"/>
</g>

<g fill="none" stroke="#fcfcfb" stroke-opacity="1" stroke-width="3.2" stroke-linecap="butt" stroke-linejoin="miter" stroke-miterlimit="5" transform="matrix(0.5,0,0,0.5,-26.348,-4.5)"
font-family="Helvetica" font-size="22" font-weight="400" font-style="normal" 
>
<path vector-effect="none" fill-rule="evenodd" d="M816.5,344.865 C816.5,341.827 814.038,339.365 811,339.365 C807.962,339.365 805.5,341.827 805.5,344.865 C805.5,347.902 807.962,350.365 811,350.365 C814.038,350.365 816.5,347.902 816.5,344.865 "/>
</g>

<g fill="#eda100" fill-opacity="1" stroke="none" transform="matrix(0.5,0,0,0.5,-26.348,-4.5)"
font-family="Helvetica" font-size="22" font-weight="400" font-style="normal" 
>
<circle cx="921.5" cy="452.479" r="5.5"/>
</g>

<g fill="none" stroke="#fcfcfb" stroke-opacity="1" stroke-width="3.2" stroke-linecap="butt" stroke-linejoin="miter" stroke-miterlimit="5" transform="matrix(0.5,0,0,0.5,-26.348,-4.5)"
font-family="Helvetica" font-size="22" font-weight="400" font-style="normal" 
>
<path vector-effect="none" fill-rule="evenodd" d="M927,452.479 C927,449.442 924.538,446.979 921.5,446.979 C918.462,446.979 916,449.442 916,452.479 C916,455.517 918.462,457.979 921.5,457.979 C924.538,457.979 927,455.517 927,452.479 "/>
</g>

<g fill="none" stroke="#1baf7a" stroke-opacity="1" stroke-width="3.2" stroke-linecap="butt" stroke-linejoin="round" transform="matrix(0.5,0,0,0.5,-26.348,-4.5)"
font-family="Helvetica" font-size="22" font-weight="400" font-style="normal" 
>
<polyline fill="none" vector-effect="none" points="148,92.9304 258.5,124.604 369,198.634 479.5,362.952 590,535.07 " />
</g>

<g fill="#1baf7a" fill-opacity="1" stroke="none" transform="matrix(0.5,0,0,0.5,-26.348,-4.5)"
font-family="Helvetica" font-size="22" font-weight="400" font-style="normal" 
>
<circle cx="148" cy="92.9304" r="5.5"/>
</g>

<g fill="none" stroke="#fcfcfb" stroke-opacity="1" stroke-width="3.2" stroke-linecap="butt" stroke-linejoin="miter" stroke-miterlimit="5" transform="matrix(0.5,0,0,0.5,-26.348,-4.5)"
font-family="Helvetica" font-size="22" font-weight="400" font-style="normal" 
>
<path vector-effect="none" fill-rule="evenodd" d="M153.5,92.9304 C153.5,89.8928 151.038,87.4304 148,87.4304 C144.962,87.4304 142.5,89.8928 142.5,92.9304 C142.5,95.9679 144.962,98.4304 148,98.4304 C151.038,98.4304 153.5,95.9679 153.5,92.9304 "/>
</g>

<g fill="#1baf7a" fill-opacity="1" stroke="none" transform="matrix(0.5,0,0,0.5,-26.348,-4.5)"
font-family="Helvetica" font-size="22" font-weight="400" font-style="normal" 
>
<circle cx="258.5" cy="124.604" r="5.5"/>
</g>

<g fill="none" stroke="#fcfcfb" stroke-opacity="1" stroke-width="3.2" stroke-linecap="butt" stroke-linejoin="miter" stroke-miterlimit="5" transform="matrix(0.5,0,0,0.5,-26.348,-4.5)"
font-family="Helvetica" font-size="22" font-weight="400" font-style="normal" 
>
<path vector-effect="none" fill-rule="evenodd" d="M264,124.604 C264,121.566 261.538,119.104 258.5,119.104 C255.462,119.104 253,121.566 253,124.604 C253,127.641 255.462,130.104 258.5,130.104 C261.538,130.104 264,127.641 264,124.604 "/>
</g>

<g fill="#1baf7a" fill-opacity="1" stroke="none" transform="matrix(0.5,0,0,0.5,-26.348,-4.5)"
font-family="Helvetica" font-size="22" font-weight="400" font-style="normal" 
>
<circle cx="369" cy="198.634" r="5.5"/>
</g>

<g fill="none" stroke="#fcfcfb" stroke-opacity="1" stroke-width="3.2" stroke-linecap="butt" stroke-linejoin="miter" stroke-miterlimit="5" transform="matrix(0.5,0,0,0.5,-26.348,-4.5)"
font-family="Helvetica" font-size="22" font-weight="400" font-style="normal" 
>
<path vector-effect="none" fill-rule="evenodd" d="M374.5,198.634 C374.5,195.596 372.038,193.134 369,193.134 C365.962,193.134 363.5,195.596 363.5,198.634 C363.5,201.672 365.962,204.134 369,204.134 C372.038,204.134 374.5,201.672 374.5,198.634 "/>
</g>

<g fill="#1baf7a" fill-opacity="1" stroke="none" transform="matrix(0.5,0,0,0.5,-26.348,-4.5)"
font-family="Helvetica" font-size="22" font-weight="400" font-style="normal" 
>
<circle cx="479.5" cy="362.952" r="5.5"/>
</g>

<g fill="none" stroke="#fcfcfb" stroke-opacity="1" stroke-width="3.2" stroke-linecap="butt" stroke-linejoin="miter" stroke-miterlimit="5" transform="matrix(0.5,0,0,0.5,-26.348,-4.5)"
font-family="Helvetica" font-size="22" font-weight="400" font-style="normal" 
>
<path vector-effect="none" fill-rule="evenodd" d="M485,362.952 C485,359.915 482.538,357.452 479.5,357.452 C476.462,357.452 474,359.915 474,362.952 C474,365.99 476.462,368.452 479.5,368.452 C482.538,368.452 485,365.99 485,362.952 "/>
</g>

<g fill="#1baf7a" fill-opacity="1" stroke="none" transform="matrix(0.5,0,0,0.5,-26.348,-4.5)"
font-family="Helvetica" font-size="22" font-weight="400" font-style="normal" 
>
<circle cx="590" cy="535.07" r="5.5"/>
</g>

<g fill="none" stroke="#fcfcfb" stroke-opacity="1" stroke-width="3.2" stroke-linecap="butt" stroke-linejoin="miter" stroke-miterlimit="5" transform="matrix(0.5,0,0,0.5,-26.348,-4.5)"
font-family="Helvetica" font-size="22" font-weight="400" font-style="normal" 
>
<path vector-effect="none" fill-rule="evenodd" d="M595.5,535.07 C595.5,532.032 593.038,529.57 590,529.57 C586.962,529.57 584.5,532.032 584.5,535.07 C584.5,538.107 586.962,540.57 590,540.57 C593.038,540.57 595.5,538.107 595.5,535.07 "/>
</g>

<g fill="none" stroke="#2a78d6" stroke-opacity="1" stroke-width="3.2" stroke-linecap="butt" stroke-linejoin="round" transform="matrix(0.5,0,0,0.5,-26.348,-4.5)"
font-family="Helvetica" font-size="22" font-weight="400" font-style="normal" 
>
<polyline fill="none" vector-effect="none" points="148,88.057 258.5,127.008 369,203.379 479.5,356.511 590,561 " />
</g>

<g fill="#2a78d6" fill-opacity="1" stroke="none" transform="matrix(0.5,0,0,0.5,-26.348,-4.5)"
font-family="Helvetica" font-size="22" font-weight="400" font-style="normal" 
>
<circle cx="148" cy="88.057" r="5.5"/>
</g>

<g fill="none" stroke="#fcfcfb" stroke-opacity="1" stroke-width="3.2" stroke-linecap="butt" stroke-linejoin="miter" stroke-miterlimit="5" transform="matrix(0.5,0,0,0.5,-26.348,-4.5)"
font-family="Helvetica" font-size="22" font-weight="400" font-style="normal" 
>
<path vector-effect="none" fill-rule="evenodd" d="M153.5,88.057 C153.5,85.0194 151.038,82.557 148,82.557 C144.962,82.557 142.5,85.0194 142.5,88.057 C142.5,91.0946 144.962,93.557 148,93.557 C151.038,93.557 153.5,91.0946 153.5,88.057 "/>
</g>

<g fill="#2a78d6" fill-opacity="1" stroke="none" transform="matrix(0.5,0,0,0.5,-26.348,-4.5)"
font-family="Helvetica" font-size="22" font-weight="400" font-style="normal" 
>
<circle cx="258.5" cy="127.008" r="5.5"/>
</g>

<g fill="none" stroke="#fcfcfb" stroke-opacity="1" stroke-width="3.2" stroke-linecap="butt" stroke-linejoin="miter" stroke-miterlimit="5" transform="matrix(0.5,0,0,0.5,-26.348,-4.5)"
font-family="Helvetica" font-size="22" font-weight="400" font-style="normal" 
>
<path vector-effect="none" fill-rule="evenodd" d="M264,127.008 C264,123.97 261.538,121.508 258.5,121.508 C255.462,121.508 253,123.97 253,127.008 C253,130.045 255.462,132.508 258.5,132.508 C261.538,132.508 264,130.045 264,127.008 "/>
</g>

<g fill="#2a78d6" fill-opacity="1" stroke="none" transform="matrix(0.5,0,0,0.5,-26.348,-4.5)"
font-family="Helvetica" font-size="22" font-weight="400" font-style="normal" 
>
<circle cx="369" cy="203.379" r="5.5"/>
</g>

<g fill="none" stroke="#fcfcfb" stroke-opacity="1" stroke-width="3.2" stroke-linecap="butt" stroke-linejoin="miter" stroke-miterlimit="5" transform="matrix(0.5,0,0,0.5,-26.348,-4.5)"
font-family="Helvetica" font-size="22" font-weight="400" font-style="normal" 
>
<path vector-effect="none" fill-rule="evenodd" d="M374.5,203.379 C374.5,200.342 372.038,197.879 369,197.879 C365.962,197.879 363.5,200.342 363.5,203.379 C363.5,206.417 365.962,208.879 369,208.879 C372.038,208.879 374.5,206.417 374.5,203.379 "/>
</g>

<g fill="#2a78d6" fill-opacity="1" stroke="none" transform="matrix(0.5,0,0,0.5,-26.348,-4.5)"
font-family="Helvetica" font-size="22" font-weight="400" font-style="normal" 
>
<circle cx="479.5" cy="356.511" r="5.5"/>
</g>

<g fill="none" stroke="#fcfcfb" stroke-opacity="1" stroke-width="3.2" stroke-linecap="butt" stroke-linejoin="miter" stroke-miterlimit="5" transform="matrix(0.5,0,0,0.5,-26.348,-4.5)"
font-family="Helvetica" font-size="22" font-weight="400" font-style="normal" 
>
<path vector-effect="none" fill-rule="evenodd" d="M485,356.511 C485,353.474 482.538,351.011 479.5,351.011 C476.462,351.011 474,353.474 474,356.511 C474,359.549 476.462,362.011 479.5,362.011 C482.538,362.011 485,359.549 485,356.511 "/>
</g>

<g fill="#2a78d6" fill-opacity="1" stroke="none" transform="matrix(0.5,0,0,0.5,-26.348,-4.5)"
font-family="Helvetica" font-size="22" font-weight="400" font-style="normal" 
>
<circle cx="590" cy="561" r="5.5"/>
</g>

<g fill="none" stroke="#fcfcfb" stroke-opacity="1" stroke-width="3.2" stroke-linecap="butt" stroke-linejoin="miter" stroke-miterlimit="5" transform="matrix(0.5,0,0,0.5,-26.348,-4.5)"
font-family="Helvetica" font-size="22" font-weight="400" font-style="normal" 
>
<path vector-effect="none" fill-rule="evenodd" d="M595.5,561 C595.5,557.962 593.038,555.5 590,555.5 C586.962,555.5 584.5,557.962 584.5,561 C584.5,564.038 586.962,566.5 590,566.5 C593.038,566.5 595.5,564.038 595.5,561 "/>
</g>

<g fill="#e4e3df" fill-opacity="1" stroke="#e4e3df" stroke-opacity="1" stroke-width="1.2" stroke-linecap="butt" stroke-linejoin="round" transform="matrix(0.5,0,0,0.5,-26.348,-4.5)"
font-family="Helvetica" font-size="22" font-weight="400" font-style="normal" 
>
<polyline fill="none" vector-effect="none" points="207.938,561 207.938,67 " />
<polyline fill="none" vector-effect="none" points="318.438,561 318.438,67 " />
<polyline fill="none" vector-effect="none" points="428.938,561 428.938,67 " />
<polyline fill="none" vector-effect="none" points="539.438,561 539.438,67 " />
<polyline fill="none" vector-effect="none" points="649.938,561 649.938,67 " />
<polyline fill="none" vector-effect="none" points="760.438,561 760.438,67 " />
<polyline fill="none" vector-effect="none" points="870.938,561 870.938,67 " />
<polyline fill="none" vector-effect="none" points="981.438,561 981.438,67 " />
<polyline fill="none" vector-effect="none" points="1032,498.523 148,498.523 " />
<polyline fill="none" vector-effect="none" points="1032,290.978 148,290.978 " />
<polyline fill="none" vector-effect="none" points="1032,83.4336 148,83.4336 " />
</g>

<g fill="#52514e" fill-opacity="1" stroke="#52514e" stroke-opacity="1" stroke-width="1.2" stroke-linecap="square" stroke-linejoin="round" transform="matrix(0.5,0,0,0.5,-26.348,-4.5)"
font-family="Helvetica" font-size="22" font-weight="400" font-style="normal" 
>
<polyline fill="none" vector-effect="none" points="148,561 1032,561 " />
<polyline fill="none" vector-effect="none" points="207.938,561 207.938,566.304 " />
<polyline fill="none" vector-effect="none" points="318.438,561 318.438,566.304 " />
<polyline fill="none" vector-effect="none" points="428.938,561 428.938,566.304 " />
<polyline fill="none" vector-effect="none" points="539.438,561 539.438,566.304 " />
<polyline fill="none" vector-effect="none" points="649.938,561 649.938,566.304 " />
<polyline fill="none" vector-effect="none" points="760.438,561 760.438,566.304 " />
<polyline fill="none" vector-effect="none" points="870.938,561 870.938,566.304 " />
<polyline fill="none" vector-effect="none" points="981.438,561 981.438,566.304 " />
</g>

<g fill="#52514e" fill-opacity="1" stroke="#52514e" stroke-opacity="1" stroke-width="1" stroke-linecap="square" stroke-linejoin="bevel" transform="matrix(0.5,0,0,0.5,69.121,290.152)"
font-family="Helvetica" font-size="20" font-weight="400" font-style="normal" 
>
<text fill="#52514e" fill-opacity="1" stroke="none" xml:space="preserve" x="0" y="0.390625" font-family="Helvetica" font-size="20" font-weight="400" font-style="normal" 
 >-4.5</text>
</g>

<g fill="#52514e" fill-opacity="1" stroke="#52514e" stroke-opacity="1" stroke-width="1" stroke-linecap="square" stroke-linejoin="bevel" transform="matrix(0.5,0,0,0.5,128.371,290.152)"
font-family="Helvetica" font-size="20" font-weight="400" font-style="normal" 
>
<text fill="#52514e" fill-opacity="1" stroke="none" xml:space="preserve" x="0" y="0.390625" font-family="Helvetica" font-size="20" font-weight="400" font-style="normal" 
 >-4</text>
</g>

<g fill="#52514e" fill-opacity="1" stroke="#52514e" stroke-opacity="1" stroke-width="1" stroke-linecap="square" stroke-linejoin="bevel" transform="matrix(0.5,0,0,0.5,179.621,290.152)"
font-family="Helvetica" font-size="20" font-weight="400" font-style="normal" 
>
<text fill="#52514e" fill-opacity="1" stroke="none" xml:space="preserve" x="0" y="0.390625" font-family="Helvetica" font-size="20" font-weight="400" font-style="normal" 
 >-3.5</text>
</g>

<g fill="#52514e" fill-opacity="1" stroke="#52514e" stroke-opacity="1" stroke-width="1" stroke-linecap="square" stroke-linejoin="bevel" transform="matrix(0.5,0,0,0.5,238.871,290.152)"
font-family="Helvetica" font-size="20" font-weight="400" font-style="normal" 
>
<text fill="#52514e" fill-opacity="1" stroke="none" xml:space="preserve" x="0" y="0.390625" font-family="Helvetica" font-size="20" font-weight="400" font-style="normal" 
 >-3</text>
</g>

<g fill="#52514e" fill-opacity="1" stroke="#52514e" stroke-opacity="1" stroke-width="1" stroke-linecap="square" stroke-linejoin="bevel" transform="matrix(0.5,0,0,0.5,290.121,290.152)"
font-family="Helvetica" font-size="20" font-weight="400" font-style="normal" 
>
<text fill="#52514e" fill-opacity="1" stroke="none" xml:space="preserve" x="0" y="0.390625" font-family="Helvetica" font-size="20" font-weight="400" font-style="normal" 
 >-2.5</text>
</g>

<g fill="#52514e" fill-opacity="1" stroke="#52514e" stroke-opacity="1" stroke-width="1" stroke-linecap="square" stroke-linejoin="bevel" transform="matrix(0.5,0,0,0.5,349.371,290.152)"
font-family="Helvetica" font-size="20" font-weight="400" font-style="normal" 
>
<text fill="#52514e" fill-opacity="1" stroke="none" xml:space="preserve" x="0" y="0.390625" font-family="Helvetica" font-size="20" font-weight="400" font-style="normal" 
 >-2</text>
</g>

<g fill="#52514e" fill-opacity="1" stroke="#52514e" stroke-opacity="1" stroke-width="1" stroke-linecap="square" stroke-linejoin="bevel" transform="matrix(0.5,0,0,0.5,400.621,290.152)"
font-family="Helvetica" font-size="20" font-weight="400" font-style="normal" 
>
<text fill="#52514e" fill-opacity="1" stroke="none" xml:space="preserve" x="0" y="0.390625" font-family="Helvetica" font-size="20" font-weight="400" font-style="normal" 
 >-1.5</text>
</g>

<g fill="#52514e" fill-opacity="1" stroke="#52514e" stroke-opacity="1" stroke-width="1" stroke-linecap="square" stroke-linejoin="bevel" transform="matrix(0.5,0,0,0.5,459.871,290.152)"
font-family="Helvetica" font-size="20" font-weight="400" font-style="normal" 
>
<text fill="#52514e" fill-opacity="1" stroke="none" xml:space="preserve" x="0" y="0.390625" font-family="Helvetica" font-size="20" font-weight="400" font-style="normal" 
 >-1</text>
</g>

<g fill="#52514e" fill-opacity="1" stroke="#52514e" stroke-opacity="1" stroke-width="1" stroke-linecap="square" stroke-linejoin="bevel" transform="matrix(0.5,0,0,0.5,245.152,302.5)"
font-family="Helvetica" font-size="20" font-weight="400" font-style="normal" 
>
<text fill="#52514e" fill-opacity="1" stroke="none" xml:space="preserve" x="0" y="0.390625" font-family="Helvetica" font-size="20" font-weight="400" font-style="normal" 
 >E</text>
</g>

<g fill="#52514e" fill-opacity="1" stroke="#52514e" stroke-opacity="1" stroke-width="1" stroke-linecap="square" stroke-linejoin="bevel" transform="matrix(0.5,0,0,0.5,251.652,307.5)"
font-family="Helvetica" font-size="16" font-weight="400" font-style="normal" 
>
<text fill="#52514e" fill-opacity="1" stroke="none" xml:space="preserve" x="0" y="0.3125" font-family="Helvetica" font-size="16" font-weight="400" font-style="normal" 
 >s</text>
</g>

<g fill="#52514e" fill-opacity="1" stroke="#52514e" stroke-opacity="1" stroke-width="1" stroke-linecap="square" stroke-linejoin="bevel" transform="matrix(0.5,0,0,0.5,255.652,302.5)"
font-family="Helvetica" font-size="20" font-weight="400" font-style="normal" 
>
<text fill="#52514e" fill-opacity="1" stroke="none" xml:space="preserve" x="0" y="0.390625" font-family="Helvetica" font-size="20" font-weight="400" font-style="normal" 
 >/N</text>
</g>

<g fill="#52514e" fill-opacity="1" stroke="#52514e" stroke-opacity="1" stroke-width="1" stroke-linecap="square" stroke-linejoin="bevel" transform="matrix(0.5,0,0,0.5,265.652,307.5)"
font-family="Helvetica" font-size="16" font-weight="400" font-style="normal" 
>
<text fill="#52514e" fill-opacity="1" stroke="none" xml:space="preserve" x="0" y="0.3125" font-family="Helvetica" font-size="16" font-weight="400" font-style="normal" 
 >0</text>
</g>

<g fill="#52514e" fill-opacity="1" stroke="#52514e" stroke-opacity="1" stroke-width="1" stroke-linecap="square" stroke-linejoin="bevel" transform="matrix(0.5,0,0,0.5,270.152,302.5)"
font-family="Helvetica" font-size="20" font-weight="400" font-style="normal" 
>
<text fill="#52514e" fill-opacity="1" stroke="none" xml:space="preserve" x="0" y="0.390625" font-family="Helvetica" font-size="20" font-weight="400" font-style="normal" 
 > (dB)</text>
</g>

<g fill="#52514e" fill-opacity="1" stroke="#52514e" stroke-opacity="1" stroke-width="1.2" stroke-linecap="square" stroke-linejoin="round" transform="matrix(0.5,0,0,0.5,-26.348,-4.5)"
font-family="Helvetica" font-size="20" font-weight="400" font-style="normal" 
>
<polyline fill="none" vector-effect="none" points="148,561 148,67 " />
<polyline fill="none" vector-effect="none" points="148,498.523 142.696,498.523 " />
<polyline fill="none" vector-effect="none" points="148,290.978 142.696,290.978 " />
<polyline fill="none" vector-effect="none" points="148,83.4336 142.696,83.4336 " />
<polyline fill="none" vector-effect="none" points="148,561 145.348,561 " />
<polyline fill="none" vector-effect="none" points="148,544.566 145.348,544.566 " />
<polyline fill="none" vector-effect="none" points="148,530.672 145.348,530.672 " />
<polyline fill="none" vector-effect="none" points="148,518.636 145.348,518.636 " />
<polyline fill="none" vector-effect="none" points="148,508.02 145.348,508.02 " />
<polyline fill="none" vector-effect="none" points="148,498.523 145.348,498.523 " />
<polyline fill="none" vector-effect="none" points="148,436.046 145.348,436.046 " />
<polyline fill="none" vector-effect="none" points="148,399.499 145.348,399.499 " />
<polyline fill="none" vector-effect="none" points="148,373.569 145.348,373.569 " />
<polyline fill="none" vector-effect="none" points="148,353.455 145.348,353.455 " />
<polyline fill="none" vector-effect="none" points="148,337.022 145.348,337.022 " />
<polyline fill="none" vector-effect="none" points="148,323.127 145.348,323.127 " />
<polyline fill="none" vector-effect="none" points="148,311.091 145.348,311.091 " />
<polyline fill="none" vector-effect="none" points="148,300.475 145.348,300.475 " />
<polyline fill="none" vector-effect="none" points="148,290.978 145.348,290.978 " />
<polyline fill="none" vector-effect="none" points="148,228.501 145.348,228.501 " />
<polyline fill="none" vector-effect="none" points="148,191.954 145.348,191.954 " />
<polyline fill="none" vector-effect="none" points="148,166.024 145.348,166.024 " />
<polyline fill="none" vector-effect="none" points="148,145.911 145.348,145.911 " />
<polyline fill="none" vector-effect="none" points="148,129.477 145.348,129.477 " />
<polyline fill="none" vector-effect="none" points="148,115.583 145.348,115.583 " />
<polyline fill="none" vector-effect="none" points="148,103.547 145.348,103.547 " />
<polyline fill="none" vector-effect="none" points="148,92.9304 145.348,92.9304 " />
<polyline fill="none" vector-effect="none" points="148,83.4336 145.348,83.4336 " />
</g>

<g fill="#52514e" fill-opacity="1" stroke="#52514e" stroke-opacity="1" stroke-width="1" stroke-linecap="square" stroke-linejoin="bevel" transform="matrix(0.5,0,0,0.5,26.5,247.261)"
font-family="Helvetica" font-size="20" font-weight="400" font-style="normal" 
>
<text fill="#52514e" fill-opacity="1" stroke="none" xml:space="preserve" x="0" y="0.390625" font-family="Helvetica" font-size="20" font-weight="400" font-style="normal" 
 >1%</text>
</g>

<g fill="#52514e" fill-opacity="1" stroke="#52514e" stroke-opacity="1" stroke-width="1" stroke-linecap="square" stroke-linejoin="bevel" transform="matrix(0.5,0,0,0.5,21,143.489)"
font-family="Helvetica" font-size="20" font-weight="400" font-style="normal" 
>
<text fill="#52514e" fill-opacity="1" stroke="none" xml:space="preserve" x="0" y="0.390625" font-family="Helvetica" font-size="20" font-weight="400" font-style="normal" 
 >10%</text>
</g>

<g fill="#52514e" fill-opacity="1" stroke="#52514e" stroke-opacity="1" stroke-width="1" stroke-linecap="square" stroke-linejoin="bevel" transform="matrix(0.5,0,0,0.5,15.5,39.7168)"
font-family="Helvetica" font-size="20" font-weight="400" font-style="normal" 
>
<text fill="#52514e" fill-opacity="1" stroke="none" xml:space="preserve" x="0" y="0.390625" font-family="Helvetica" font-size="20" font-weight="400" font-style="normal" 
 >100%</text>
</g>

<g fill="#52514e" fill-opacity="1" stroke="#52514e" stroke-opacity="1" stroke-width="1" stroke-linecap="square" stroke-linejoin="bevel" transform="matrix(0,-0.5,0.5,0,9.5,190.75)"
font-family="Helvetica" font-size="22" font-weight="400" font-style="normal" 
>
<text fill="#52514e" fill-opacity="1" stroke="none" xml:space="preserve" x="0" y="-0.0625" font-family="Helvetica" font-size="22" font-weight="400" font-style="normal" 
 >frame error rate</text>
</g>

<g fill="#52514e" fill-opacity="0.6" stroke="#52514e" stroke-opacity="0.6" stroke-dasharray="10,6" stroke-dashoffset="0" stroke-width="1.5" stroke-linecap="butt" stroke-linejoin="round" transform="matrix(0.5,0,0,0.5,-26.348,-4.5)"
font-family="Helvetica" font-size="22" font-weight="400" font-style="normal" 
>
<polyline fill="none" vector-effect="none" points="148,290.978 1032,290.978 " />
<polyline fill="none" vector-effect="none" points="148,498.523 1032,498.523 " />
</g>

<g fill="#eb6834" fill-opacity="1" stroke="#eb6834" stroke-opacity="1" stroke-width="3.2" stroke-linecap="butt" stroke-linejoin="round" transform="matrix(0.5,0,0,0.5,-26.348,-4.5)"
font-family="Helvetica" font-size="22" font-weight="400" font-style="normal" 
>
<polyline fill="none" vector-effect="none" points="170.006,466.463 230.063,466.463 " />
</g>

<g fill="#eb6834" fill-opacity="1" stroke="none" transform="matrix(0.5,0,0,0.5,-26.348,-4.5)"
font-family="Helvetica" font-size="22" font-weight="400" font-style="normal" 
>
<circle cx="200.035" cy="466.463" r="5.5"/>
</g>

<g fill="none" stroke="#fcfcfb" stroke-opacity="1" stroke-width="3.2" stroke-linecap="butt" stroke-linejoin="miter" stroke-miterlimit="5" transform="matrix(0.5,0,0,0.5,-26.348,-4.5)"
font-family="Helvetica" font-size="22" font-weight="400" font-style="normal" 
>
<path vector-effect="none" fill-rule="evenodd" d="M205.535,466.463 C205.535,463.426 203.072,460.963 200.035,460.963 C196.997,460.963 194.535,463.426 194.535,466.463 C194.535,469.501 196.997,471.963 200.035,471.963 C203.072,471.963 205.535,469.501 205.535,466.463 "/>
</g>

<g fill="#eda100" fill-opacity="1" stroke="#eda100" stroke-opacity="1" stroke-width="3.2" stroke-linecap="butt" stroke-linejoin="round" transform="matrix(0.5,0,0,0.5,-26.348,-4.5)"
font-family="Helvetica" font-size="22" font-weight="400" font-style="normal" 
>
<polyline fill="none" vector-effect="none" points="170.006,488.154 230.063,488.154 " />
</g>

<g fill="#eda100" fill-opacity="1" stroke="none" transform="matrix(0.5,0,0,0.5,-26.348,-4.5)"
font-family="Helvetica" font-size="22" font-weight="400" font-style="normal" 
>
<circle cx="200.035" cy="488.154" r="5.5"/>
</g>

<g fill="none" stroke="#fcfcfb" stroke-opacity="1" stroke-width="3.2" stroke-linecap="butt" stroke-linejoin="miter" stroke-miterlimit="5" transform="matrix(0.5,0,0,0.5,-26.348,-4.5)"
font-family="Helvetica" font-size="22" font-weight="400" font-style="normal" 
>
<path vector-effect="none" fill-rule="evenodd" d="M205.535,488.154 C205.535,485.117 203.072,482.654 200.035,482.654 C196.997,482.654 194.535,485.117 194.535,488.154 C194.535,491.192 196.997,493.654 200.035,493.654 C203.072,493.654 205.535,491.192 205.535,488.154 "/>
</g>

<g fill="#1baf7a" fill-opacity="1" stroke="#1baf7a" stroke-opacity="1" stroke-width="3.2" stroke-linecap="butt" stroke-linejoin="round" transform="matrix(0.5,0,0,0.5,-26.348,-4.5)"
font-family="Helvetica" font-size="22" font-weight="400" font-style="normal" 
>
<polyline fill="none" vector-effect="none" points="170.006,509.846 230.063,509.846 " />
</g>

<g fill="#1baf7a" fill-opacity="1" stroke="none" transform="matrix(0.5,0,0,0.5,-26.348,-4.5)"
font-family="Helvetica" font-size="22" font-weight="400" font-style="normal" 
>
<circle cx="200.035" cy="509.846" r="5.5"/>
</g>

<g fill="none" stroke="#fcfcfb" stroke-opacity="1" stroke-width="3.2" stroke-linecap="butt" stroke-linejoin="miter" stroke-miterlimit="5" transform="matrix(0.5,0,0,0.5,-26.348,-4.5)"
font-family="Helvetica" font-size="22" font-weight="400" font-style="normal" 
>
<path vector-effect="none" fill-rule="evenodd" d="M205.535,509.846 C205.535,506.808 203.072,504.346 200.035,504.346 C196.997,504.346 194.535,506.808 194.535,509.846 C194.535,512.883 196.997,515.346 200.035,515.346 C203.072,515.346 205.535,512.883 205.535,509.846 "/>
</g>

<g fill="#2a78d6" fill-opacity="1" stroke="#2a78d6" stroke-opacity="1" stroke-width="3.2" stroke-linecap="butt" stroke-linejoin="round" transform="matrix(0.5,0,0,0.5,-26.348,-4.5)"
font-family="Helvetica" font-size="22" font-weight="400" font-style="normal" 
>
<polyline fill="none" vector-effect="none" points="170.006,531.537 230.063,531.537 " />
</g>

<g fill="#2a78d6" fill-opacity="1" stroke="none" transform="matrix(0.5,0,0,0.5,-26.348,-4.5)"
font-family="Helvetica" font-size="22" font-weight="400" font-style="normal" 
>
<circle cx="200.035" cy="531.537" r="5.5"/>
</g>

<g fill="none" stroke="#fcfcfb" stroke-opacity="1" stroke-width="3.2" stroke-linecap="butt" stroke-linejoin="miter" stroke-miterlimit="5" transform="matrix(0.5,0,0,0.5,-26.348,-4.5)"
font-family="Helvetica" font-size="22" font-weight="400" font-style="normal" 
>
<path vector-effect="none" fill-rule="evenodd" d="M205.535,531.537 C205.535,528.499 203.072,526.037 200.035,526.037 C196.997,526.037 194.535,528.499 194.535,531.537 C194.535,534.574 196.997,537.037 200.035,537.037 C203.072,537.037 205.535,534.574 205.535,531.537 "/>
</g>

<g fill="#52514e" fill-opacity="1" stroke="#52514e" stroke-opacity="1" stroke-width="1" stroke-linecap="square" stroke-linejoin="bevel" transform="matrix(0.5,0,0,0.5,90.9359,231.232)"
font-family="Helvetica" font-size="18" font-weight="400" font-style="normal" 
>
<text fill="#52514e" fill-opacity="1" stroke="none" xml:space="preserve" x="0" y="-0.140625" font-family="Helvetica" font-size="18" font-weight="400" font-style="normal" 
 >Deployed (PC): legacy, 100 iterations, fixed-EsNo LLRs</text>
</g>

<g fill="#52514e" fill-opacity="1" stroke="#52514e" stroke-opacity="1" stroke-width="1" stroke-linecap="square" stroke-linejoin="bevel" transform="matrix(0.5,0,0,0.5,90.9359,242.077)"
font-family="Helvetica" font-size="18" font-weight="400" font-style="normal" 
>
<text fill="#52514e" fill-opacity="1" stroke="none" xml:space="preserve" x="0" y="-0.140625" font-family="Helvetica" font-size="18" font-weight="400" font-style="normal" 
 >Embedded build: legacy, 10 iterations, fixed-EsNo LLRs</text>
</g>

<g fill="#52514e" fill-opacity="1" stroke="#52514e" stroke-opacity="1" stroke-width="1" stroke-linecap="square" stroke-linejoin="bevel" transform="matrix(0.5,0,0,0.5,90.9359,252.923)"
font-family="Helvetica" font-size="18" font-weight="400" font-style="normal" 
>
<text fill="#52514e" fill-opacity="1" stroke="none" xml:space="preserve" x="0" y="-0.140625" font-family="Helvetica" font-size="18" font-weight="400" font-style="normal" 
 >MATLAB belief propagation, 50 (golden)</text>
</g>

<g fill="#52514e" fill-opacity="1" stroke="#52514e" stroke-opacity="1" stroke-width="1" stroke-linecap="square" stroke-linejoin="bevel" transform="matrix(0.5,0,0,0.5,90.9359,263.768)"
font-family="Helvetica" font-size="18" font-weight="400" font-style="normal" 
>
<text fill="#52514e" fill-opacity="1" stroke="none" xml:space="preserve" x="0" y="-0.140625" font-family="Helvetica" font-size="18" font-weight="400" font-style="normal" 
 >New: int16 vector min-sum, 100, calibrated LLRs</text>
</g>
</g>
</svg>
