<?xml version="1.0" encoding="UTF-8" standalone="no"?>
<svg width="173.567mm" height="109.008mm"
 viewBox="0 0 492 309"
 xmlns="http://www.w3.org/2000/svg" xmlns:xlink="http://www.w3.org/1999/xlink" version="1.1">
<title>Qt SVG Document</title>
<desc>MATLAB, The MathWorks, Inc. Version 26.1.0.3312084 R2026a Update 4</desc>
<defs>
</defs>
<g fill="none" stroke="black" stroke-width="1" fill-rule="evenodd" stroke-linecap="square" stroke-linejoin="bevel" >

<g fill="#fcfcfb" fill-opacity="1" stroke="none" transform="matrix(0.5,0,0,0.5,-26.348,-4.5)"
font-family=".AppleSystemUIFont" font-size="13" font-weight="400" font-style="normal" 
>
<path vector-effect="none" fill-rule="evenodd" d="M51,8 L1036,8 L1036,627 L51,627 L51,8"/>
</g>

<g fill="#fcfcfb" fill-opacity="1" stroke="none" transform="matrix(5e-05,0,0,5e-05,-26.348,-4.5)"
font-family=".AppleSystemUIFont" font-size="13" font-weight="400" font-style="normal" 
>
<path vector-effect="none" fill-rule="evenodd" d="M1.48e+06,670000 L1.48e+06,5.61e+06 L1.032e+07,5.61e+06 L1.032e+07,670000 L1.48e+06,670000"/>
</g>

<g fill="#0b0b0b" fill-opacity="1" stroke="#0b0b0b" stroke-opacity="1" stroke-width="1" stroke-linecap="square" stroke-linejoin="bevel" transform="matrix(0.5,0,0,0.5,67.152,10.5)"
font-family="Helvetica" font-size="24" font-weight="400" font-style="normal" 
>
<text fill="#0b0b0b" fill-opacity="1" stroke="none" xml:space="preserve" x="0" y="0.46875" font-family="Helvetica" font-size="24" font-weight="400" font-style="normal" 
 >H_1024_2048_4f  (DATAC3 / DATAC4): frame error rate, BPSK over AWGN</text>
</g>

<g fill="#52514e" fill-opacity="1" stroke="#52514e" stroke-opacity="1" stroke-width="1" stroke-linecap="square" stroke-linejoin="bevel" transform="matrix(0.5,0,0,0.5,130.652,25.125)"
font-family="Helvetica" font-size="22" font-weight="400" font-style="normal" 
>
<text fill="#52514e" fill-opacity="1" stroke="none" xml:space="preserve" x="0" y="-0.0625" font-family="Helvetica" font-size="22" font-weight="400" font-style="normal" 
 >deployed -&gt; new decoder: 0.59 dB at FER 1% recovered</text>
</g>

<g fill="none" stroke="#eb6834" stroke-opacity="1" stroke-width="3.2" stroke-linecap="butt" stroke-linejoin="round" transform="matrix(0.5,0,0,0.5,-26.348,-4.5)"
font-family="Helvetica" font-size="22" font-weight="400" font-style="normal" 
>
<polyline fill="none" vector-effect="none" points="148,83.4336 258.5,83.4336 369,84.5674 479.5,117.975 590,309.233 700.5,514.956 762.103,561 " />
<polyline fill="none" vector-effect="none" points="921.5,561 921.5,561 921.5,561 " />
</g>

<g fill="#eb6834" fill-opacity="1" stroke="none" transform="matrix(0.5,0,0,0.5,-26.348,-4.5)"
font-family="Helvetica" font-size="22" font-weight="400" font-style="normal" 
>
<circle cx="148" cy="83.4336" r="5.5"/>
</g>

<g fill="none" stroke="#fcfcfb" stroke-opacity="1" stroke-width="3.2" stroke-linecap="butt" stroke-linejoin="miter" stroke-miterlimit="5" transform="matrix(0.5,0,0,0.5,-26.348,-4.5)"
font-family="Helvetica" font-size="22" font-weight="400" font-style="normal" 
>
<path vector-effect="none" fill-rule="evenodd" d="M153.5,83.4336 C153.5,80.3961 151.038,77.9336 148,77.9336 C144.962,77.9336 142.5,80.3961 142.5,83.4336 C142.5,86.4712 144.962,88.9336 148,88.9336 C151.038,88.9336 153.5,86.4712 153.5,83.4336 "/>
</g>

<g fill="#eb6834" fill-opacity="1" stroke="none" transform="matrix(0.5,0,0,0.5,-26.348,-4.5)"
font-family="Helvetica" font-size="22" font-weight="400" font-style="normal" 
>
<circle cx="258.5" cy="83.4336" r="5.5"/>
</g>

<g fill="none" stroke="#fcfcfb" stroke-opacity="1" stroke-width="3.2" stroke-linecap="butt" stroke-linejoin="miter" stroke-miterlimit="5" transform="matrix(0.5,0,0,0.5,-26.348,-4.5)"
font-family="Helvetica" font-size="22" font-weight="400" font-style="normal" 
>
<path vector-effect="none" fill-rule="evenodd" d="M264,83.4336 C264,80.3961 261.538,77.9336 258.5,77.9336 C255.462,77.9336 253,80.3961 253,83.4336 C253,86.4712 255.462,88.9336 258.5,88.9336 C261.538,88.9336 264,86.4712 264,83.4336 "/>
</g>

<g fill="#eb6834" fill-opacity="1" stroke="none" transform="matrix(0.5,0,0,0.5,-26.348,-4.5)"
font-family="Helvetica" font-size="22" font-weight="400" font-style="normal" 
>
<circle cx="369" cy="84.5674" r="5.5"/>
</g>

<g fill="none" stroke="#fcfcfb" stroke-opacity="1" stroke-width="3.2" stroke-linecap="butt" stroke-linejoin="miter" stroke-miterlimit="5" transform="matrix(0.5,0,0,0.5,-26.348,-4.5)"
font-family="Helvetica" font-size="22" font-weight="400" font-style="normal" 
>
<path vector-effect="none" fill-rule="evenodd" d="M374.5,84.5674 C374.5,81.5299 372.038,79.0674 369,79.0674 C365.962,79.0674 363.5,81.5299 363.5,84.5674 C363.5,87.605 365.962,90.0674 369,90.0674 C372.038,90.0674 374.5,87.605 374.5,84.5674 "/>
</g>

<g fill="#eb6834" fill-opacity="1" stroke="none" transform="matrix(0.5,0,0,0.5,-26.348,-4.5)"
font-family="Helvetica" font-size="22" font-weight="400" font-style="normal" 
>
<circle cx="479.5" cy="117.975" r="5.5"/>
</g>

<g fill="none" stroke="#fcfcfb" stroke-opacity="1" stroke-width="3.2" stroke-linecap="butt" stroke-linejoin="miter" stroke-miterlimit="5" transform="matrix(0.5,0,0,0.5,-26.348,-4.5)"
font-family="Helvetica" font-size="22" font-weight="400" font-style="normal" 
>
<path vector-effect="none" fill-rule="evenodd" d="M485,117.975 C485,114.937 482.538,112.475 479.5,112.475 C476.462,112.475 474,114.937 474,117.975 C474,121.012 476.462,123.475 479.5,123.475 C482.538,123.475 485,121.012 485,117.975 "/>
</g>

<g fill="#eb6834" fill-opacity="1" stroke="none" transform="matrix(0.5,0,0,0.5,-26.348,-4.5)"
font-family="Helvetica" font-size="22" font-weight="400" font-style="normal" 
>
<circle cx="590" cy="309.233" r="5.5"/>
</g>

<g fill="none" stroke="#fcfcfb" stroke-opacity="1" stroke-width="3.2" stroke-linecap="butt" stroke-linejoin="miter" stroke-miterlimit="5" transform="matrix(0.5,0,0,0.5,-26.348,-4.5)"
font-family="Helvetica" font-size="22" font-weight="400" font-style="normal" 
>
<path vector-effect="none" fill-rule="evenodd" d="M595.5,309.233 C595.5,306.195 593.038,303.733 590,303.733 C586.962,303.733 584.5,306.195 584.5,309.233 C584.5,312.27 586.962,314.733 590,314.733 C593.038,314.733 595.5,312.27 595.5,309.233 "/>
</g>

<g fill="#eb6834" fill-opacity="1" stroke="none" transform="matrix(0.5,0,0,0.5,-26.348,-4.5)"
font-family="Helvetica" font-size="22" font-weight="400" font-style="normal" 
>
<circle cx="700.5" cy="514.956" r="5.5"/>
</g>

<g fill="none" stroke="#fcfcfb" stroke-opacity="1" stroke-width="3.2" stroke-linecap="butt" stroke-linejoin="miter" stroke-miterlimit="5" transform="matrix(0.5,0,0,0.5,-26.348,-4.5)"
font-family="Helvetica" font-size="22" font-weight="400" font-style="normal" 
>
<path vector-effect="none" fill-rule="evenodd" d="M706,514.956 C706,511.919 703.538,509.456 700.5,509.456 C697.462,509.456 695,511.919 695,514.956 C695,517.994 697.462,520.456 700.5,520.456 C703.538,520.456 706,517.994 706,514.956 "/>
</g>

<g fill="#eb6834" fill-opacity="1" stroke="none" transform="matrix(0.5,0,0,0.5,-26.348,-4.5)"
font-family="Helvetica" font-size="22" font-weight="400" font-style="normal" 
>
<circle cx="921.5" cy="561" r="5.5"/>
</g>

<g fill="none" stroke="#fcfcfb" stroke-opacity="1" stroke-width="3.2" stroke-linecap="butt" stroke-linejoin="miter" stroke-miterlimit="5" transform="matrix(0.5,0,0,0.5,-26.348,-4.5)"
font-family="Helvetica" font-size="22" font-weight="400" font-style="normal" 
>
<path vector-effect="none" fill-rule="evenodd" d="M927,561 C927,557.962 924.538,555.5 921.5,555.5 C918.462,555.5 916,557.962 916,561 C916,564.038 918.462,566.5 921.5,566.5 C924.538,566.5 927,564.038 927,561 "/>
</g>

<g fill="none" stroke="#eda100" stroke-opacity="1" stroke-width="3.2" stroke-linecap="butt" stroke-linejoin="round" transform="matrix(0.5,0,0,0.5,-26.348,-4.5)"
font-family="Helvetica" font-size="22" font-weight="400" font-style="normal" 
>
<polyline fill="none" vector-effect="none" points="148,83.4336 258.5,83.4336 369,83.4336 479.5,84.7959 590,126.764 700.5,309.233 811,498.523 921.5,561 921.5,561 " />
</g>

<g fill="#eda100" fill-opacity="1" stroke="none" transform="matrix(0.5,0,0,0.5,-26.348,-4.5)"
font-family="Helvetica" font-size="22" font-weight="400" font-style="normal" 
>
<circle cx="148" cy="83.4336" r="5.5"/>
</g>

<g fill="none" stroke="#fcfcfb" stroke-opacity="1" stroke-width="3.2" stroke-linecap="butt" stroke-linejoin="miter" stroke-miterlimit="5" transform="matrix(0.5,0,0,0.5,-26.348,-4.5)"
font-family="Helvetica" font-size="22" font-weight="400" font-style="normal" 
>
<path vector-effect="none" fill-rule="evenodd" d="M153.5,83.4336 C153.5,80.3961 151.038,77.9336 148,77.9336 C144.962,77.9336 142.5,80.3961 142.5,83.4336 C142.5,86.4712 144.962,88.9336 148,88.9336 C151.038,88.9336 153.5,86.4712 153.5,83.4336 "/>
</g>

<g fill="#eda100" fill-opacity="1" stroke="none" transform="matrix(0.5,0,0,0.5,-26.348,-4.5)"
font-family="Helvetica" font-size="22" font-weight="400" font-style="normal" 
>
<circle cx="258.5" cy="83.4336" r="5.5"/>
</g>

<g fill="none" stroke="#fcfcfb" stroke-opacity="1" stroke-width="3.2" stroke-linecap="butt" stroke-linejoin="miter" stroke-miterlimit="5" transform="matrix(0.5,0,0,0.5,-26.348,-4.5)"
font-family="Helvetica" font-size="22" font-weight="400" font-style="normal" 
>
<path vector-effect="none" fill-rule="evenodd" d="M264,83.4336 C264,80.3961 261.538,77.9336 258.5,77.9336 C255.462,77.9336 253,80.3961 253,83.4336 C253,86.4712 255.462,88.9336 258.5,88.9336 C261.538,88.9336 264,86.4712 264,83.4336 "/>
</g>

<g fill="#eda100" fill-opacity="1" stroke="none" transform="matrix(0.5,0,0,0.5,-26.348,-4.5)"
font-family="Helvetica" font-size="22" font-weight="400" font-style="normal" 
>
<circle cx="369" cy="83.4336" r="5.5"/>
</g>

<g fill="none" stroke="#fcfcfb" stroke-opacity="1" stroke-width="3.2" stroke-linecap="butt" stroke-linejoin="miter" stroke-miterlimit="5" transform="matrix(0.5,0,0,0.5,-26.348,-4.5)"
font-family="Helvetica" font-size="22" font-weight="400" font-style="normal" 
>
<path vector-effect="none" fill-rule="evenodd" d="M374.5,83.4336 C374.5,80.3961 372.038,77.9336 369,77.9336 C365.962,77.9336 363.5,80.3961 363.5,83.4336 C363.5,86.4712 365.962,88.9336 369,88.9336 C372.038,88.9336 374.5,86.4712 374.5,83.4336 "/>
</g>

<g fill="#eda100" fill-opacity="1" stroke="none" transform="matrix(0.5,0,0,0.5,-26.348,-4.5)"
font-family="Helvetica" font-size="22" font-weight="400" font-style="normal" 
>
<circle cx="479.5" cy="84.7959" r="5.5"/>
</g>

<g fill="none" stroke="#fcfcfb" stroke-opacity="1" stroke-width="3.2" stroke-linecap="butt" stroke-linejoin="miter" stroke-miterlimit="5" transform="matrix(0.5,0,0,0.5,-26.348,-4.5)"
font-family="Helvetica" font-size="22" font-weight="400" font-style="normal" 
>
<path vector-effect="none" fill-rule="evenodd" d="M485,84.7959 C485,81.7583 482.538,79.2959 479.5,79.2959 C476.462,79.2959 474,81.7583 474,84.7959 C474,87.8335 476.462,90.2959 479.5,90.2959 C482.538,90.2959 485,87.8335 485,84.7959 "/>
</g>

<g fill="#eda100" fill-opacity="1" stroke="none" transform="matrix(0.5,0,0,0.5,-26.348,-4.5)"
font-family="Helvetica" font-size="22" font-weight="400" font-style="normal" 
>
<circle cx="590" cy="126.764" r="5.5"/>
</g>

<g fill="none" stroke="#fcfcfb" stroke-opacity="1" stroke-width="3.2" stroke-linecap="butt" stroke-linejoin="miter" stroke-miterlimit="5" transform="matrix(0.5,0,0,0.5,-26.348,-4.5)"
font-family="Helvetica" font-size="22" font-weight="400" font-style="normal" 
>
<path vector-effect="none" fill-rule="evenodd" d="M595.5,126.764 C595.5,123.727 593.038,121.264 590,121.264 C586.962,121.264 584.5,123.727 584.5,126.764 C584.5,129.802 586.962,132.264 590,132.264 C593.038,132.264 595.5,129.802 595.5,126.764 "/>
</g>

<g fill="#eda100" fill-opacity="1" stroke="none" transform="matrix(0.5,0,0,0.5,-26.348,-4.5)"
font-family="Helvetica" font-size="22" font-weight="400" font-style="normal" 
>
<circle cx="700.5" cy="309.233" r="5.5"/>
</g>

<g fill="none" stroke="#fcfcfb" stroke-opacity="1" stroke-width="3.2" stroke-linecap="butt" stroke-linejoin="miter" stroke-miterlimit="5" transform="matrix(0.5,0,0,0.5,-26.348,-4.5)"
font-family="Helvetica" font-size="22" font-weight="400" font-style="normal" 
>
<path vector-effect="none" fill-rule="evenodd" d="M706,309.233 C706,306.195 703.538,303.733 700.5,303.733 C697.462,303.733 695,306.195 695,309.233 C695,312.27 697.462,314.733 700.5,314.733 C703.538,314.733 706,312.27 706,309.233 "/>
</g>

<g fill="#eda100" fill-opacity="1" stroke="none" transform="matrix(0.5,0,0,0.5,-26.348,-4.5)"
font-family="Helvetica" font-size="22" font-weight="400" font-style="normal" 
>
<circle cx="811" cy="498.523" r="5.5"/>
</g>

<g fill="none" stroke="#fcfcfb" stroke-opacity="1" stroke-width="3.2" stroke-linecap="butt" stroke-linejoin="miter" stroke-miterlimit="5" transform="matrix(0.5,0,0,0.5,-26.348,-4.5)"
font-family="Helvetica" font-size="22" font-weight="400" font-style="normal" 
>
<path vector-effect="none" fill-rule="evenodd" d="M816.5,498.523 C816.5,495.485 814.038,493.023 811,493.023 C807.962,493.023 805.5,495.485 805.5,498.523 C805.5,501.56 807.962,504.023 811,504.023 C814.038,504.023 816.5,501.56 816.5,498.523 "/>
</g>

<g fill="#eda100" fill-opacity="1" stroke="none" transform="matrix(0.5,0,0,0.5,-26.348,-4.5)"
font-family="Helvetica" font-size="22" font-weight="400" font-style="normal" 
>
<circle cx="921.5" cy="561" r="5.5"/>
</g>

<g fill="none" stroke="#fcfcfb" stroke-opacity="1" stroke-width="3.2" stroke-linecap="butt" stroke-linejoin="miter" stroke-miterlimit="5" transform="matrix(0.5,0,0,0.5,-26.348,-4.5)"
font-family="Helvetica" font-size="22" font-weight="400" font-style="normal" 
>
<path vector-effect="none" fill-rule="evenodd" d="M927,561 C927,557.962 924.538,555.5 921.5,555.5 C918.462,555.5 916,557.962 916,561 C916,564.038 918.462,566.5 921.5,566.5 C924.538,566.5 927,564.038 927,561 "/>
</g>

<g fill="none" stroke="#1baf7a" stroke-opacity="1" stroke-width="3.2" stroke-linecap="butt" stroke-linejoin="round" transform="matrix(0.5,0,0,0.5,-26.348,-4.5)"
font-family="Helvetica" font-size="22" font-weight="400" font-style="normal" 
>
<polyline fill="none" vector-effect="none" points="148,83.4336 258.5,85.7157 369,150.534 479.5,404.651 590,561 700.5,561 700.5,561 " />
</g>

<g fill="#1baf7a" fill-opacity="1" stroke="none" transform="matrix(0.5,0,0,0.5,-26.348,-4.5)"
font-family="Helvetica" font-size="22" font-weight="400" font-style="normal" 
>
<circle cx="148" cy="83.4336" r="5.5"/>
</g>

<g fill="none" stroke="#fcfcfb" stroke-opacity="1" stroke-width="3.2" stroke-linecap="butt" stroke-linejoin="miter" stroke-miterlimit="5" transform="matrix(0.5,0,0,0.5,-26.348,-4.5)"
font-family="Helvetica" font-size="22" font-weight="400" font-style="normal" 
>
<path vector-effect="none" fill-rule="evenodd" d="M153.5,83.4336 C153.5,80.3961 151.038,77.9336 148,77.9336 C144.962,77.9336 142.5,80.3961 142.5,83.4336 C142.5,86.4712 144.962,88.9336 148,88.9336 C151.038,88.9336 153.5,86.4712 153.5,83.4336 "/>
</g>

<g fill="#1baf7a" fill-opacity="1" stroke="none" transform="matrix(0.5,0,0,0.5,-26.348,-4.5)"
font-family="Helvetica" font-size="22" font-weight="400" font-style="normal" 
>
<circle cx="258.5" cy="85.7157" r="5.5"/>
</g>

<g fill="none" stroke="#fcfcfb" stroke-opacity="1" stroke-width="3.2" stroke-linecap="butt" stroke-linejoin="miter" stroke-miterlimit="5" transform="matrix(0.5,0,0,0.5,-26.348,-4.5)"
font-family="Helvetica" font-size="22" font-weight="400" font-style="normal" 
>
<path vector-effect="none" fill-rule="evenodd" d="M264,85.7157 C264,82.6781 261.538,80.2157 258.5,80.2157 C255.462,80.2157 253,82.6781 253,85.7157 C253,88.7532 255.462,91.2157 258.5,91.2157 C261.538,91.2157 264,88.7532 264,85.7157 "/>
</g>

<g fill="#1baf7a" fill-opacity="1" stroke="none" transform="matrix(0.5,0,0,0.5,-26.348,-4.5)"
font-family="Helvetica" font-size="22" font-weight="400" font-style="normal" 
>
<circle cx="369" cy="150.534" r="5.5"/>
</g>

<g fill="none" stroke="#fcfcfb" stroke-opacity="1" stroke-width="3.2" stroke-linecap="butt" stroke-linejoin="miter" stroke-miterlimit="5" transform="matrix(0.5,0,0,0.5,-26.348,-4.5)"
font-family="Helvetica" font-size="22" font-weight="400" font-style="normal" 
>
<path vector-effect="none" fill-rule="evenodd" d="M374.5,150.534 C374.5,147.497 372.038,145.034 369,145.034 C365.962,145.034 363.5,147.497 363.5,150.534 C363.5,153.572 365.962,156.034 369,156.034 C372.038,156.034 374.5,153.572 374.5,150.534 "/>
</g>

<g fill="#1baf7a" fill-opacity="1" stroke="none" transform="matrix(0.5,0,0,0.5,-26.348,-4.5)"
font-family="Helvetica" font-size="22" font-weight="400" font-style="normal" 
>
<circle cx="479.5" cy="404.651" r="5.5"/>
</g>

<g fill="none" stroke="#fcfcfb" stroke-opacity="1" stroke-width="3.2" stroke-linecap="butt" stroke-linejoin="miter" stroke-miterlimit="5" transform="matrix(0.5,0,0,0.5,-26.348,-4.5)"
font-family="Helvetica" font-size="22" font-weight="400" font-style="normal" 
>
<path vector-effect="none" fill-rule="evenodd" d="M485,404.651 C485,401.613 482.538,399.151 479.5,399.151 C476.462,399.151 474,401.613 474,404.651 C474,407.688 476.462,410.151 479.5,410.151 C482.538,410.151 485,407.688 485,404.651 "/>
</g>

<g fill="#1baf7a" fill-opacity="1" stroke="none" transform="matrix(0.5,0,0,0.5,-26.348,-4.5)"
font-family="Helvetica" font-size="22" font-weight="400" font-style="normal" 
>
<circle cx="590" cy="561" r="5.5"/>
</g>

<g fill="none" stroke="#fcfcfb" stroke-opacity="1" stroke-width="3.2" stroke-linecap="butt" stroke-linejoin="miter" stroke-miterlimit="5" transform="matrix(0.5,0,0,0.5,-26.348,-4.5)"
font-family="Helvetica" font-size="22" font-weight="400" font-style="normal" 
>
<path vector-effect="none" fill-rule="evenodd" d="M595.5,561 C595.5,557.962 593.038,555.5 590,555.5 C586.962,555.5 584.5,557.962 584.5,561 C584.5,564.038 586.962,566.5 590,566.5 C593.038,566.5 595.5,564.038 595.5,561 "/>
</g>

<g fill="#1baf7a" fill-opacity="1" stroke="none" transform="matrix(0.5,0,0,0.5,-26.348,-4.5)"
font-family="Helvetica" font-size="22" font-weight="400" font-style="normal" 
>
<circle cx="700.5" cy="561" r="5.5"/>
</g>

<g fill="none" stroke="#fcfcfb" stroke-opacity="1" stroke-width="3.2" stroke-linecap="butt" stroke-linejoin="miter" stroke-miterlimit="5" transform="matrix(0.5,0,0,0.5,-26.348,-4.5)"
font-family="Helvetica" font-size="22" font-weight="400" font-style="normal" 
>
<path vector-effect="none" fill-rule="evenodd" d="M706,561 C706,557.962 703.538,555.5 700.5,555.5 C697.462,555.5 695,557.962 695,561 C695,564.038 697.462,566.5 700.5,566.5 C703.538,566.5 706,564.038 706,561 "/>
</g>

<g fill="none" stroke="#2a78d6" stroke-opacity="1" stroke-width="3.2" stroke-linecap="butt" stroke-linejoin="round" transform="matrix(0.5,0,0,0.5,-26.348,-4.5)"
font-family="Helvetica" font-size="22" font-weight="400" font-style="normal" 
>
<polyline fill="none" vector-effect="none" points="148,83.4336 258.5,90.4607 369,168.886 479.5,394.626 590,535.07 700.5,561 700.5,561 " />
</g>

<g fill="#2a78d6" fill-opacity="1" stroke="none" transform="matrix(0.5,0,0,0.5,-26.348,-4.5)"
font-family="Helvetica" font-size="22" font-weight="400" font-style="normal" 
>
<circle cx="148" cy="83.4336" r="5.5"/>
</g>

<g fill="none" stroke="#fcfcfb" stroke-opacity="1" stroke-width="3.2" stroke-linecap="butt" stroke-linejoin="miter" stroke-miterlimit="5" transform="matrix(0.5,0,0,0.5,-26.348,-4.5)"
font-family="Helvetica" font-size="22" font-weight="400" font-style="normal" 
>
<path vector-effect="none" fill-rule="evenodd" d="M153.5,83.4336 C153.5,80.3961 151.038,77.9336 148,77.9336 C144.962,77.9336 142.5,80.3961 142.5,83.4336 C142.5,86.4712 144.962,88.9336 148,88.9336 C151.038,88.9336 153.5,86.4712 153.5,83.4336 "/>
</g>

<g fill="#2a78d6" fill-opacity="1" stroke="none" transform="matrix(0.5,0,0,0.5,-26.348,-4.5)"
font-family="Helvetica" font-size="22" font-weight="400" font-style="normal" 
>
<circle cx="258.5" cy="90.4607" r="5.5"/>
</g>

<g fill="none" stroke="#fcfcfb" stroke-opacity="1" stroke-width="3.2" stroke-linecap="butt" stroke-linejoin="miter" stroke-miterlimit="5" transform="matrix(0.5,0,0,0.5,-26.348,-4.5)"
font-family="Helvetica" font-size="22" font-weight="400" font-style="normal" 
>
<path vector-effect="none" fill-rule="evenodd" d="M264,90.4607 C264,87.4232 261.538,84.9607 258.5,84.9607 C255.462,84.9607 253,87.4232 253,90.4607 C253,93.4983 255.462,95.9607 258.5,95.9607 C261.538,95.9607 264,93.4983 264,90.4607 "/>
</g>

<g fill="#2a78d6" fill-opacity="1" stroke="none" transform="matrix(0.5,0,0,0.5,-26.348,-4.5)"
font-family="Helvetica" font-size="22" font-weight="400" font-style="normal" 
>
<circle cx="369" cy="168.886" r="5.5"/>
</g>

<g fill="none" stroke="#fcfcfb" stroke-opacity="1" stroke-width="3.2" stroke-linecap="butt" stroke-linejoin="miter" stroke-miterlimit="5" transform="matrix(0.5,0,0,0.5,-26.348,-4.5)"
font-family="Helvetica" font-size="22" font-weight="400" font-style="normal" 
>
<path vector-effect="none" fill-rule="evenodd" d="M374.5,168.886 C374.5,165.848 372.038,163.386 369,163.386 C365.962,163.386 363.5,165.848 363.5,168.886 C363.5,171.923 365.962,174.386 369,174.386 C372.038,174.386 374.5,171.923 374.5,168.886 "/>
</g>

<g fill="#2a78d6" fill-opacity="1" stroke="none" transform="matrix(0.5,0,0,0.5,-26.348,-4.5)"
font-family="Helvetica" font-size="22" font-weight="400" font-style="normal" 
>
<circle cx="479.5" cy="394.626" r="5.5"/>
</g>

<g fill="none" stroke="#fcfcfb" stroke-opacity="1" stroke-width="3.2" stroke-linecap="butt" stroke-linejoin="miter" stroke-miterlimit="5" transform="matrix(0.5,0,0,0.5,-26.348,-4.5)"
font-family="Helvetica" font-size="22" font-weight="400" font-style="normal" 
>
<path vector-effect="none" fill-rule="evenodd" d="M485,394.626 C485,391.588 482.538,389.126 479.5,389.126 C476.462,389.126 474,391.588 474,394.626 C474,397.663 476.462,400.126 479.5,400.126 C482.538,400.126 485,397.663 485,394.626 "/>
</g>

<g fill="#2a78d6" fill-opacity="1" stroke="none" transform="matrix(0.5,0,0,0.5,-26.348,-4.5)"
font-family="Helvetica" font-size="22" font-weight="400" font-style="normal" 
>
<circle cx="590" cy="535.07" r="5.5"/>
</g>

<g fill="none" stroke="#fcfcfb" stroke-opacity="1" stroke-width="3.2" stroke-linecap="butt" stroke-linejoin="miter" stroke-miterlimit="5" transform="matrix(0.5,0,0,0.5,-26.348,-4.5)"
font-family="Helvetica" font-size="22" font-weight="400" font-style="normal" 
>
<path vector-effect="none" fill-rule="evenodd" d="M595.5,535.07 C595.5,532.032 593.038,529.57 590,529.57 C586.962,529.57 584.5,532.032 584.5,535.07 C584.5,538.107 586.962,540.57 590,540.57 C593.038,540.57 595.5,538.107 595.5,535.07 "/>
</g>

<g fill="#2a78d6" fill-opacity="1" stroke="none" transform="matrix(0.5,0,0,0.5,-26.348,-4.5)"
font-family="Helvetica" font-size="22" font-weight="400" font-style="normal" 
>
<circle cx="700.5" cy="561" r="5.5"/>
</g>

<g fill="none" stroke="#fcfcfb" stroke-opacity="1" stroke-width="3.2" stroke-linecap="butt" stroke-linejoin="miter" stroke-miterlimit="5" transform="matrix(0.5,0,0,0.5,-26.348,-4.5)"
font-family="Helvetica" font-size="22" font-weight="400" font-style="normal" 
>
<path vector-effect="none" fill-rule="evenodd" d="M706,561 C706,557.962 703.538,555.5 700.5,555.5 C697.462,555.5 695,557.962 695,561 C695,564.038 697.462,566.5 700.5,566.5 C703.538,566.5 706,564.038 706,561 "/>
</g>

<g fill="#e4e3df" fill-opacity="1" stroke="#e4e3df" stroke-opacity="1" stroke-width="1.2" stroke-linecap="butt" stroke-linejoin="round" transform="matrix(0.5,0,0,0.5,-26.348,-4.5)"
font-family="Helvetica" font-size="22" font-weight="400" font-style="normal" 
>
<polyline fill="none" vector-effect="none" points="150.276,561 150.276,67 " />
<polyline fill="none" vector-effect="none" points="260.776,561 260.776,67 " />
<polyline fill="none" vector-effect="none" points="371.276,561 371.276,67 " />
<polyline fill="none" vector-effect="none" points="481.776,561 481.776,67 " />
<polyline fill="none" vector-effect="none" points="592.276,561 592.276,67 " />
<polyline fill="none" vector-effect="none" points="702.776,561 702.776,67 " />
<polyline fill="none" vector-effect="none" points="813.276,561 813.276,67 " />
<polyline fill="none" vector-effect="none" points="923.776,561 923.776,67 " />
<polyline fill="none" vector-effect="none" points="1032,498.523 148,498.523 " />
<polyline fill="none" vector-effect="none" points="1032,290.978 148,290.978 " />
<polyline fill="none" vector-effect="none" points="1032,83.4336 148,83.4336 " />
</g>

<g fill="#52514e" fill-opacity="1" stroke="#52514e" stroke-opacity="1" stroke-width="1.2" stroke-linecap="square" stroke-linejoin="round" transform="matrix(0.5,0,0,0.5,-26.348,-4.5)"
font-family="Helvetica" font-size="22" font-weight="400" font-style="normal" 
>
<polyline fill="none" vector-effect="none" points="148,561 1032,561 " />
<polyline fill="none" vector-effect="none" points="150.276,561 150.276,566.304 " />
<polyline fill="none" vector-effect="none" points="260.776,561 260.776,566.304 " />
<polyline fill="none" vector-effect="none" points="371.276,561 371.276,566.304 " />
<polyline fill="none" vector-effect="none" points="481.776,561 481.776,566.304 " />
<polyline fill="none" vector-effect="none" points="592.276,561 592.276,566.304 " />
<polyline fill="none" vector-effect="none" points="702.776,561 702.776,566.304 " />
<polyline fill="none" vector-effect="none" points="813.276,561 813.276,566.304 " />
<polyline fill="none" vector-effect="none" points="923.776,561 923.776,566.304 " />
</g>

<g fill="#52514e" fill-opacity="1" stroke="#52514e" stroke-opacity="1" stroke-width="1" stroke-linecap="square" stroke-linejoin="bevel" transform="matrix(0.5,0,0,0.5,44.2901,290.152)"
font-family="Helvetica" font-size="20" font-weight="400" font-style="normal" 
>
<text fill="#52514e" fill-opacity="1" stroke="none" xml:space="preserve" x="0" y="0.390625" font-family="Helvetica" font-size="20" font-weight="400" font-style="normal" 
 >-3</text>
</g>

<g fill="#52514e" fill-opacity="1" stroke="#52514e" stroke-opacity="1" stroke-width="1" stroke-linecap="square" stroke-linejoin="bevel" transform="matrix(0.5,0,0,0.5,95.5402,290.152)"
font-family="Helvetica" font-size="20" font-weight="400" font-style="normal" 
>
<text fill="#52514e" fill-opacity="1" stroke="none" xml:space="preserve" x="0" y="0.390625" font-family="Helvetica" font-size="20" font-weight="400" font-style="normal" 
 >-2.5</text>
</g>

<g fill="#52514e" fill-opacity="1" stroke="#52514e" stroke-opacity="1" stroke-width="1" stroke-linecap="square" stroke-linejoin="bevel" transform="matrix(0.5,0,0,0.5,154.79,290.152)"
font-family="Helvetica" font-size="20" font-weight="400" font-style="normal" 
>
<text fill="#52514e" fill-opacity="1" stroke="none" xml:space="preserve" x="0" y="0.390625" font-family="Helvetica" font-size="20" font-weight="400" font-style="normal" 
 >-2</text>
</g>

<g fill="#52514e" fill-opacity="1" stroke="#52514e" stroke-opacity="1" stroke-width="1" stroke-linecap="square" stroke-linejoin="bevel" transform="matrix(0.5,0,0,0.5,206.04,290.152)"
font-family="Helvetica" font-size="20" font-weight="400" font-style="normal" 
>
<text fill="#52514e" fill-opacity="1" stroke="none" xml:space="preserve" x="0" y="0.390625" font-family="Helvetica" font-size="20" font-weight="400" font-style="normal" 
 >-1.5</text>
</g>

<g fill="#52514e" fill-opacity="1" stroke="#52514e" stroke-opacity="1" stroke-width="1" stroke-linecap="square" stroke-linejoin="bevel" transform="matrix(0.5,0,0,0.5,265.29,290.152)"
font-family="Helvetica" font-size="20" font-weight="400" font-style="normal" 
>
<text fill="#52514e" fill-opacity="1" stroke="none" xml:space="preserve" x="0" y="0.390625" font-family="Helvetica" font-size="20" font-weight="400" font-style="normal" 
 >-1</text>
</g>

<g fill="#52514e" fill-opacity="1" stroke="#52514e" stroke-opacity="1" stroke-width="1" stroke-linecap="square" stroke-linejoin="bevel" transform="matrix(0.5,0,0,0.5,316.54,290.152)"
font-family="Helvetica" font-size="20" font-weight="400" font-style="normal" 
>
<text fill="#52514e" fill-opacity="1" stroke="none" xml:space="preserve" x="0" y="0.390625" font-family="Helvetica" font-size="20" font-weight="400" font-style="normal" 
 >-0.5</text>
</g>

<g fill="#52514e" fill-opacity="1" stroke="#52514e" stroke-opacity="1" stroke-width="1" stroke-linecap="square" stroke-linejoin="bevel" transform="matrix(0.5,0,0,0.5,377.54,290.152)"
font-family="Helvetica" font-size="20" font-weight="400" font-style="normal" 
>
<text fill="#52514e" fill-opacity="1" stroke="none" xml:space="preserve" x="0" y="0.390625" font-family="Helvetica" font-size="20" font-weight="400" font-style="normal" 
 >0</text>
</g>

<g fill="#52514e" fill-opacity="1" stroke="#52514e" stroke-opacity="1" stroke-width="1" stroke-linecap="square" stroke-linejoin="bevel" transform="matrix(0.5,0,0,0.5,428.54,290.152)"
font-family="Helvetica" font-size="20" font-weight="400" font-style="normal" 
>
<text fill="#52514e" fill-opacity="1" stroke="none" xml:space="preserve" x="0" y="0.390625" font-family="Helvetica" font-size="20" font-weight="400" font-style="normal" 
 >0.5</text>
</g>

<g fill="#52514e" fill-opacity="1" stroke="#52514e" stroke-opacity="1" stroke-width="1" stroke-linecap="square" stroke-linejoin="bevel" transform="matrix(0.5,0,0,0.5,245.152,302.5)"
font-family="Helvetica" font-size="20" font-weight="400" font-style="normal" 
>
<text fill="#52514e" fill-opacity="1" stroke="none" xml:space="preserve" x="0" y="0.390625" font-family="Helvetica" font-size="20" font-weight="400" font-style="normal" 
 >E</text>
</g>

<g fill="#52514e" fill-opacity="1" stroke="#52514e" stroke-opacity="1" stroke-width="1" stroke-linecap="square" stroke-linejoin="bevel" transform="matrix(0.5,0,0,0.5,251.652,307.5)"
font-family="Helvetica" font-size="16" font-weight="400" font-style="normal" 
>
<text fill="#52514e" fill-opacity="1" stroke="none" xml:space="preserve" x="0" y="0.3125" font-family="Helvetica" font-size="16" font-weight="400" font-style="normal" 
 >s</text>
</g>

<g fill="#52514e" fill-opacity="1" stroke="#52514e" stroke-opacity="1" stroke-width="1" stroke-linecap="square" stroke-linejoin="bevel" transform="matrix(0.5,0,0,0.5,255.652,302.5)"
font-family="Helvetica" font-size="20" font-weight="400" font-style="normal" 
>
<text fill="#52514e" fill-opacity="1" stroke="none" xml:space="preserve" x="0" y="0.390625" font-family="Helvetica" font-size="20" font-weight="400" font-style="normal" 
 >/N</text>
</g>

<g fill="#52514e" fill-opacity="1" stroke="#52514e" stroke-opacity="1" stroke-width="1" stroke-linecap="square" stroke-linejoin="bevel" transform="matrix(0.5,0,0,0.5,265.652,307.5)"
font-family="Helvetica" font-size="16" font-weight="400" font-style="normal" 
>
<text fill="#52514e" fill-opacity="1" stroke="none" xml:space="preserve" x="0" y="0.3125" font-family="Helvetica" font-size="16" font-weight="400" font-style="normal" 
 >0</text>
</g>

<g fill="#52514e" fill-opacity="1" stroke="#52514e" stroke-opacity="1" stroke-width="1" stroke-linecap="square" stroke-linejoin="bevel" transform="matrix(0.5,0,0,0.5,270.152,302.5)"
font-family="Helvetica" font-size="20" font-weight="400" font-style="normal" 
>
<text fill="#52514e" fill-opacity="1" stroke="none" xml:space="preserve" x="0" y="0.390625" font-family="Helvetica" font-size="20" font-weight="400" font-style="normal" 
 > (dB)</text>
</g>

<g fill="#52514e" fill-opacity="1" stroke="#52514e" stroke-opacity="1" stroke-width="1.2" stroke-linecap="square" stroke-linejoin="round" transform="matrix(0.5,0,0,0.5,-26.348,-4.5)"
font-family="Helvetica" font-size="20" font-weight="400" font-style="normal" 
>
<polyline fill="none" vector-effect="none" points="148,561 148,67 " />
<polyline fill="none" vector-effect="none" points="148,498.523 142.696,498.523 " />
<polyline fill="none" vector-effect="none" points="148,290.978 142.696,290.978 " />
<polyline fill="none" vector-effect="none" points="148,83.4336 142.696,83.4336 " />
<polyline fill="none" vector-effect="none" points="148,561 145.348,561 " />
<polyline fill="none" vector-effect="none" points="148,544.566 145.348,544.566 " />
<polyline fill="none" vector-effect="none" points="148,530.672 145.348,530.672 " />
<polyline fill="none" vector-effect="none" points="148,518.636 145.348,518.636 " />
<polyline fill="none" vector-effect="none" points="148,508.02 145.348,508.02 " />
<polyline fill="none" vector-effect="none" points="148,498.523 145.348,498.523 " />
<polyline fill="none" vector-effect="none" points="148,436.046 145.348,436.046 " />
<polyline fill="none" vector-effect="none" points="148,399.499 145.348,399.499 " />
<polyline fill="none" vector-effect="none" points="148,373.569 145.348,373.569 " />
<polyline fill="none" vector-effect="none" points="148,353.455 145.348,353.455 " />
<polyline fill="none" vector-effect="none" points="148,337.022 145.348,337.022 " />
<polyline fill="none" vector-effect="none" points="148,323.127 145.348,323.127 " />
<polyline fill="none" vector-effect="none" points="148,311.091 145.348,311.091 " />
<polyline fill="none" vector-effect="none" points="148,300.475 145.348,300.475 " />
<polyline fill="none" vector-effect="none" points="148,290.978 145.348,290.978 " />
<polyline fill="none" vector-effect="none" points="148,228.501 145.348,228.501 " />
<polyline fill="none" vector-effect="none" points="148,191.954 145.348,191.954 " />
<polyline fill="none" vector-effect="none" points="148,166.024 145.348,166.024 " />
<polyline fill="none" vector-effect="none" points="148,145.911 145.348,145.911 " />
<polyline fill="none" vector-effect="none" points="148,129.477 145.348,129.477 " />
<polyline fill="none" vector-effect="none" points="148,115.583 145.348,115.583 " />
<polyline fill="none" vector-effect="none" points="148,103.547 145.348,103.547 " />
<polyline fill="none" vector-effect="none" points="148,92.9304 145.348,92.9304 " />
<polyline fill="none" vector-effect="none" points="148,83.4336 145.348,83.4336 " />
</g>

<g fill="#52514e" fill-opacity="1" stroke="#52514e" stroke-opacity="1" stroke-width="1" stroke-linecap="square" stroke-linejoin="bevel" transform="matrix(0.5,0,0,0.5,26.5,247.261)"
font-family="Helvetica" font-size="20" font-weight="400" font-style="normal" 
>
<text fill="#52514e" fill-opacity="1" stroke="none" xml:space="preserve" x="0" y="0.390625" font-family="Helvetica" font-size="20" font-weight="400" font-style="normal" 
 >1%</text>
</g>

<g fill="#52514e" fill-opacity="1" stroke="#52514e" stroke-opacity="1" stroke-width="1" stroke-linecap="square" stroke-linejoin="bevel" transform="matrix(0.5,0,0,0.5,21,143.489)"
font-family="Helvetica" font-size="20" font-weight="400" font-style="normal" 
>
<text fill="#52514e" fill-opacity="1" stroke="none" xml:space="preserve" x="0" y="0.390625" font-family="Helvetica" font-size="20" font-weight="400" font-style="normal" 
 >10%</text>
</g>

<g fill="#52514e" fill-opacity="1" stroke="#52514e" stroke-opacity="1" stroke-width="1" stroke-linecap="square" stroke-linejoin="bevel" transform="matrix(0.5,0,0,0.5,15.5,39.7168)"
font-family="Helvetica" font-size="20" font-weight="400" font-style="normal" 
>
<text fill="#52514e" fill-opacity="1" stroke="none" xml:space="preserve" x="0" y="0.390625" font-family="Helvetica" font-size="20" font-weight="400" font-style="normal" 
 >100%</text>
</g>

<g fill="#52514e" fill-opacity="1" stroke="#52514e" stroke-opacity="1" stroke-width="1" stroke-linecap="square" stroke-linejoin="bevel" transform="matrix(0,-0.5,0.5,0,9.5,190.75)"
font-family="Helvetica" font-size="22" font-weight="400" font-style="normal" 
>
<text fill="#52514e" fill-opacity="1" stroke="none" xml:space="preserve" x="0" y="-0.0625" font-family="Helvetica" font-size="22" font-weight="400" font-style="normal" 
 >frame error rate</text>
</g>

<g fill="#52514e" fill-opacity="0.6" stroke="#52514e" stroke-opacity="0.6" stroke-dasharray="10,6" stroke-dashoffset="0" stroke-width="1.5" stroke-linecap="butt" stroke-linejoin="round" transform="matrix(0.5,0,0,0.5,-26.348,-4.5)"
font-family="Helvetica" font-size="22" font-weight="400" font-style="normal" 
>
<polyline fill="none" vector-effect="none" points="148,290.978 1032,290.978 " />
<polyline fill="none" vector-effect="none" points="148,498.523 1032,498.523 " />
</g>

<g fill="#eb6834" fill-opacity="1" stroke="#eb6834" stroke-opacity="1" stroke-width="3.2" stroke-linecap="butt" stroke-linejoin="round" transform="matrix(0.5,0,0,0.5,-26.348,-4.5)"
font-family="Helvetica" font-size="22" font-weight="400" font-style="normal" 
>
<polyline fill="none" vector-effect="none" points="169.994,466.463 229.937,466.463 " />
</g>

<g fill="#eb6834" fill-opacity="1" stroke="none" transform="matrix(0.5,0,0,0.5,-26.348,-4.5)"
font-family="Helvetica" font-size="22" font-weight="400" font-style="normal" 
>
<circle cx="199.965" cy="466.463" r="5.5"/>
</g>

<g fill="none" stroke="#fcfcfb" stroke-opacity="1" stroke-width="3.2" stroke-linecap="butt" stroke-linejoin="miter" stroke-miterlimit="5" transform="matrix(0.5,0,0,0.5,-26.348,-4.5)"
font-family="Helvetica" font-size="22" font-weight="400" font-style="normal" 
>
<path vector-effect="none" fill-rule="evenodd" d="M205.465,466.463 C205.465,463.426 203.003,460.963 199.965,460.963 C196.928,460.963 194.465,463.426 194.465,466.463 C194.465,469.501 196.928,471.963 199.965,471.963 C203.003,471.963 205.465,469.501 205.465,466.463 "/>
</g>

<g fill="#eda100" fill-opacity="1" stroke="#eda100" stroke-opacity="1" stroke-width="3.2" stroke-linecap="butt" stroke-linejoin="round" transform="matrix(0.5,0,0,0.5,-26.348,-4.5)"
font-family="Helvetica" font-size="22" font-weight="400" font-style="normal" 
>
<polyline fill="none" vector-effect="none" points="169.994,488.154 229.937,488.154 " />
</g>

<g fill="#eda100" fill-opacity="1" stroke="none" transform="matrix(0.5,0,0,0.5,-26.348,-4.5)"
font-family="Helvetica" font-size="22" font-weight="400" font-style="normal" 
>
<circle cx="199.965" cy="488.154" r="5.5"/>
</g>

<g fill="none" stroke="#fcfcfb" stroke-opacity="1" stroke-width="3.2" stroke-linecap="butt" stroke-linejoin="miter" stroke-miterlimit="5" transform="matrix(0.5,0,0,0.5,-26.348,-4.5)"
font-family="Helvetica" font-size="22" font-weight="400" font-style="normal" 
>
<path vector-effect="none" fill-rule="evenodd" d="M205.465,488.154 C205.465,485.117 203.003,482.654 199.965,482.654 C196.928,482.654 194.465,485.117 194.465,488.154 C194.465,491.192 196.928,493.654 199.965,493.654 C203.003,493.654 205.465,491.192 205.465,488.154 "/>
</g>

<g fill="#1baf7a" fill-opacity="1" stroke="#1baf7a" stroke-opacity="1" stroke-width="3.2" stroke-linecap="butt" stroke-linejoin="round" transform="matrix(0.5,0,0,0.5,-26.348,-4.5)"
font-family="Helvetica" font-size="22" font-weight="400" font-style="normal" 
>
<polyline fill="none" vector-effect="none" points="169.994,509.846 229.937,509.846 " />
</g>

<g fill="#1baf7a" fill-opacity="1" stroke="none" transform="matrix(0.5,0,0,0.5,-26.348,-4.5)"
font-family="Helvetica" font-size="22" font-weight="400" font-style="normal" 
>
<circle cx="199.965" cy="509.846" r="5.5"/>
</g>

<g fill="none" stroke="#fcfcfb" stroke-opacity="1" stroke-width="3.2" stroke-linecap="butt" stroke-linejoin="miter" stroke-miterlimit="5" transform="matrix(0.5,0,0,0.5,-26.348,-4.5)"
font-family="Helvetica" font-size="22" font-weight="400" font-style="normal" 
>
<path vector-effect="none" fill-rule="evenodd" d="M205.465,509.846 C205.465,506.808 203.003,504.346 199.965,504.346 C196.928,504.346 194.465,506.808 194.465,509.846 C194.465,512.883 196.928,515.346 199.965,515.346 C203.003,515.346 205.465,512.883 205.465,509.846 "/>
</g>

<g fill="#2a78d6" fill-opacity="1" stroke="#2a78d6" stroke-opacity="1" stroke-width="3.2" stroke-linecap="butt" stroke-linejoin="round" transform="matrix(0.5,0,0,0.5,-26.348,-4.5)"
font-family="Helvetica" font-size="22" font-weight="400" font-style="normal" 
>
<polyline fill="none" vector-effect="none" points="169.994,531.537 229.937,531.537 " />
</g>

<g fill="#2a78d6" fill-opacity="1" stroke="none" transform="matrix(0.5,0,0,0.5,-26.348,-4.5)"
font-family="Helvetica" font-size="22" font-weight="400" font-style="normal" 
>
<circle cx="199.965" cy="531.537" r="5.5"/>
</g>

<g fill="none" stroke="#fcfcfb" stroke-opacity="1" stroke-width="3.2" stroke-linecap="butt" stroke-linejoin="miter" stroke-miterlimit="5" transform="matrix(0.5,0,0,0.5,-26.348,-4.5)"
font-family="Helvetica" font-size="22" font-weight="400" font-style="normal" 
>
<path vector-effect="none" fill-rule="evenodd" d="M205.465,531.537 C205.465,528.499 203.003,526.037 199.965,526.037 C196.928,526.037 194.465,528.499 194.465,531.537 C194.465,534.574 196.928,537.037 199.965,537.037 C203.003,537.037 205.465,534.574 205.465,531.537 "/>
</g>

<g fill="#52514e" fill-opacity="1" stroke="#52514e" stroke-opacity="1" stroke-width="1" stroke-linecap="square" stroke-linejoin="bevel" transform="matrix(0.5,0,0,0.5,90.8681,231.232)"
font-family="Helvetica" font-size="18" font-weight="400" font-style="normal" 
>
<text fill="#52514e" fill-opacity="1" stroke="none" xml:space="preserve" x="0" y="-0.140625" font-family="Helvetica" font-size="18" font-weight="400" font-style="normal" 
 >Deployed (PC): legacy, 100 iterations, fixed-EsNo LLRs</text>
</g>

<g fill="#52514e" fill-opacity="1" stroke="#52514e" stroke-opacity="1" stroke-width="1" stroke-linecap="square" stroke-linejoin="bevel" transform="matrix(0.5,0,0,0.5,90.8681,242.077)"
font-family="Helvetica" font-size="18" font-weight="400" font-style="normal" 
>
<text fill="#52514e" fill-opacity="1" stroke="none" xml:space="preserve" x="0" y="-0.140625" font-family="Helvetica" font-size="18" font-weight="400" font-style="normal" 
 >Embedded build: legacy, 10 iterations, fixed-EsNo LLRs</text>
</g>

<g fill="#52514e" fill-opacity="1" stroke="#52514e" stroke-opacity="1" stroke-width="1" stroke-linecap="square" stroke-linejoin="bevel" transform="matrix(0.5,0,0,0.5,90.8681,252.923)"
font-family="Helvetica" font-size="18" font-weight="400" font-style="normal" 
>
<text fill="#52514e" fill-opacity="1" stroke="none" xml:space="preserve" x="0" y="-0.140625" font-family="Helvetica" font-size="18" font-weight="400" font-style="normal" 
 >MATLAB belief propagation, 50 (golden)</text>
</g>

<g fill="#52514e" fill-opacity="1" stroke="#52514e" stroke-opacity="1" stroke-width="1" stroke-linecap="square" stroke-linejoin="bevel" transform="matrix(0.5,0,0,0.5,90.8681,263.768)"
font-family="Helvetica" font-size="18" font-weight="400" font-style="normal" 
>
<text fill="#52514e" fill-opacity="1" stroke="none" xml:space="preserve" x="0" y="-0.140625" font-family="Helvetica" font-size="18" font-weight="400" font-style="normal" 
 >New: table sum-product, 100, calibrated LLRs</text>
</g>
</g>
</svg>
